<svg xmlns="http://www.w3.org/2000/svg" viewBox="0 0 50 56.27">
  <path d="M25 0c-.78 0-1.57.17-2.16.52L2.16 12.45A4.8 4.8 0 0 0 0 16.2v23.87c0 .68.24 1.45.64 2.13.39.68.93 1.27 1.52 1.62l20.68 11.93a4.8 4.8 0 0 0 4.32 0l20.68-11.93c.6-.35 1.13-.94 1.52-1.62.4-.68.64-1.45.64-2.13V16.2c0-.69-.24-1.45-.64-2.13a4.43 4.43 0 0 0-1.52-1.62L27.16.52A4.43 4.43 0 0 0 25 0zm-.17 9.78a18.36 18.36 0 0 1 4.92.62 18.36 18.36 0 0 1 11.14 8.56l-3.72 2.15a14.06 14.06 0 0 0-8.53-6.56 14.06 14.06 0 0 0-17.22 9.94 14.06 14.06 0 0 0 9.94 17.23 14.06 14.06 0 0 0 15.8-6.57l3.72 2.15a18.36 18.36 0 0 1-20.63 8.57A18.36 18.36 0 0 1 7.27 23.38a18.36 18.36 0 0 1 17.56-13.6zm-.04 13.95h2.93v2.93h2.94v2.94h-2.94v2.94H24.8V29.6h-2.94v-2.94h2.94v-2.93zm11.43 0h2.94v2.93h2.94v2.94h-2.94v2.94h-2.94V29.6h-2.94v-2.94h2.94v-2.93z"/>
</svg>
