<svg xmlns="http://www.w3.org/2000/svg" font-family="Arial" font-size="12" viewBox="0 0 600 490">
  <path fill="none" d="M0 0h600v480H0z"/>
  <path stroke="#d6d7d9" stroke-dasharray="2 4" d="M157.28 437.25V18.01m104.38 419.24V18.01m104.39 419.24V45.01m0-18v-9m104.38 419.24V45.01m0-18v-9M52.89 133.45h521.93M52.89 194.21h521.93M52.89 254.97h521.93M52.89 315.73h521.93M52.89 376.49h521.93M52.89 437.25h521.93m-521.93 0V18.01m0 54.68h521.93m0 364.56V18.01" color="gray"/>
  <path stroke="#eee" d="M157.28 437.25V444m104.38-6.75V444m104.39-6.75V444m104.38-6.75V444M52.89 133.45h-6.75m6.75 60.76h-6.75m6.75 60.76h-6.75m6.75 60.76h-6.75m6.75 60.76h-6.75m6.75 60.76h-6.75m6.75 0V444m0-371.31h-6.75m528.68 364.56V444" color="#000"/>
  <path fill="none" d="M52.89 18.01v419.24h521.93"/>
  <g fill="#eee">
    <g text-anchor="end">
      <text transform="translate(37.75 137.35)"><tspan>0.5</tspan></text>
      <text transform="translate(37.75 198.11)"><tspan>0.4</tspan></text>
      <text transform="translate(37.75 258.87)"><tspan>0.3</tspan></text>
      <text transform="translate(37.75 319.63)"><tspan>0.2</tspan></text>
      <text transform="translate(37.75 380.39)"><tspan>0.1</tspan></text>
      <text transform="translate(37.75 441.15)"><tspan>0</tspan></text>
      <text transform="translate(37.75 76.59)"><tspan>0.6</tspan></text>
    </g>
    <g text-anchor="middle">
      <text transform="translate(574.82 465.9)"><tspan>1000</tspan></text>
      <text transform="translate(157.28 465.9)"><tspan>200</tspan></text>
      <text transform="translate(261.66 465.9)"><tspan>400</tspan></text>
      <text transform="translate(366.05 465.9)"><tspan>600</tspan></text>
      <text transform="translate(470.43 465.9)"><tspan>800</tspan></text>
      <text transform="translate(52.89 465.9)"><tspan>0</tspan></text>
    <text transform="translate(290,485.9)"><tspan>added padding (bytes)</tspan></text>
    <text transform="translate(10,235) rotate(-90)"><tspan>runtime (seconds)</tspan></text>
    </g>
  </g>
  <g fill="none" stroke-width="3" color="#000">
    <text fill="#eee" text-anchor="end" transform="translate(507.09 39.91)">&apos;padding-v-runtime&apos;</text>
    <path stroke="#57d" d="M515.48 36.01h42.56M52.89 285.35l.52-6.07.52 6.07h1.05l.52-133.67h7.31l.52 133.67h10.96l.52-6.07.52 6.07.52-6.07.53 6.07h.52l.52-6.07.52 6.07.52-6.07h.53l.52 6.07h.52l.52-6.07.52 6.07h1.57l.52-6.07.52 6.07.53-6.07.52 6.07.52-6.07h3.13l.52-133.68h7.31l.52 139.75.52-6.07h.53l.52 6.07.52-6.07h1.04l.53 6.07.52-6.07h1.04l.52 6.07.53-6.07h1.56l.52 6.07.52-6.07h5.22l.53 6.07.52-6.07h.52l.52 6.07h.52l.53-6.07h4.17l.52 6.07.53-6.07h.52l.52 6.07.52-6.07h1.04l.53-133.68h5.22l.52 6.08.52-6.08h1.04l.53 133.68h4.17l.52 6.07.52-6.07h1.57l.52 6.07.52-6.07h7.83l.53 6.07.52-6.07h1.04l.52 6.07.53-6.07h1.56l.52 6.07.52-6.07h1.57l.52 6.07.52-6.07h1.05l.52-133.68h6.26l.53 6.08.52-6.08.52 139.75.52-6.07h13.05l.52 6.07h.52l.53-6.07h.52l.52 6.07.52-6.07h2.61l.52 6.07h.52l.53-6.07.52 6.07h.52l.52-6.07.52 6.07.53-6.07h.52l.52 6.07.52-6.07.52-133.68h4.18l.52 6.08.52-6.08h1.57l.52 6.08.52 127.6h4.18l.52 6.07h.52l.52-6.07h.53l.52 6.07.52-6.07h.52l.52 6.07.53-6.07.52 6.07.52-6.07h1.04l.53 6.07.52-6.07.52 6.07.52-6.07h1.04l.53 6.07.52-6.07h.52l.52 6.07h.52l.53-6.07.52 6.07.52-6.07h1.04l.53 6.07.52-6.07.52 6.07.52-6.07h3.13l.53 6.07.52-133.67.52-6.08h6.26l.52 6.08.53 133.67.52-6.07h1.04l.52 6.07.53-6.07h3.13l.52 6.07.52-6.07h1.05l.52 6.07h1.04l.52-6.07h2.09l.52 6.07h.52l.53-6.07h1.56l.52 6.07h.53l.52-6.07.52 6.07.52-6.07h4.7l.52 6.07.52-6.07h1.57l.52-133.68h7.31l.52 133.68h3.65l.53 6.07.52-6.07h2.08l.53 6.07.52-6.07h.52l.52 6.07.52-6.07.53 6.07.52-6.07h1.04l.52 6.07.53-6.07h2.08l.53 6.07.52-6.07h5.22l.52 6.07.52-6.07.52 6.07.52-6.07h2.09l.52-133.68h5.75l.52 6.08h.52l.52-6.08.52 133.68.53 6.07.52-6.07.52 6.07.52-6.07h2.09l.52 6.07h.52l.52-6.07h.53l.52 6.07h.52l.52-6.07h2.61l.52 6.07.53-6.07h4.69l.53 6.07h.52l.52-6.07h2.61l.52 6.07h.52l.52-6.07.53 6.07.52-6.07h2.09l.52-127.6.52-6.08h5.74l.52 6.08h.52l.53 133.67h.52l.52 6.08.52-12.15h4.7l.52 6.07.52-6.07.53 6.07.52-6.07h5.74l.52 6.07.52-6.07h.52l.53 6.07.52-6.07h.52l.52 6.07.52-6.07h2.09l.52 6.07.53-6.07h3.65l.52-133.68h7.31l.52 133.68.52 6.07.52-6.07.53 6.07.52-6.07h5.74l.52 6.07.52-6.07h1.05l.52 6.07.52-6.07h3.13l.52 6.07h.53l.52-6.07h7.31l.52 6.07.52-6.07h1.04l.52-127.6.53-6.08.52 6.08h.52l.52-6.08h4.7l.52 6.08.52 127.6.53 6.07h.52l.52-6.07.52 6.07.52-6.07h.53l.52 6.07.52-6.07h3.65l.52 6.07.53-6.07h1.56l.52 6.07.53-6.07h1.04l.52 6.07h.52l.53-6.07h.52l.52 6.07.52-6.07h2.61l.52 6.07h.53l.52-6.07h3.65l.52 6.07.52-6.07.53 6.07.52-139.75h6.78l.53 6.08.52 127.6h.52l.52 6.07.52-6.07h2.61l.52 6.07h.53l.52-6.07h3.13l.52 6.07.52-6.07h.53l.52 6.07.52-6.07h.52l.52 6.07.53-6.07h1.56l.52 6.07.53-6.07h5.21l.53 6.07h.52l.52-6.07h2.09l.52 6.07.52-139.75h.52l.53 6.08.52-6.08h4.17l.53 6.08.52-6.08h.52l.52 133.68h5.22l.52 6.07.52-6.07h3.14l.52 6.07.52-6.07h4.17l.53 6.07.52-6.07h7.83l.52 6.07.52-6.07h.52l.53-133.68h7.3l.52 133.68h2.61l.53 6.07.52-6.07.52 6.07.52-6.07.52 6.07h1.05l.52-6.07h1.04l.53 6.07.52-6.07h7.83l.52 6.07.52-6.07h2.09l.52 6.07.52-6.07h3.13l.53 6.07h.52l.52-139.75h6.26l.52 6.08h.53l.52 127.6h1.56l.53 6.07.52-6.07h12.52l.53-18.23.52 18.23h8.87l.52-133.68h4.7l.52-6.07.52 6.07h1.57l.52 139.75.52-6.07h6.79l.52 6.07.52-6.07h2.09"/>
  </g>
  <path fill="none" stroke="#eee" d="M52.89 18.01v419.24h521.93" color="#000"/>
</svg>
