<?xml version="1.0" encoding="UTF-8"?>
 <svg width="210mm" height="297mm" version="1.1" viewBox="0 0 210 297" xmlns="http://www.w3.org/2000/svg" fill="#eee" stroke="#eee">
 <g fill="#fff" stroke="#000" stroke-width="5">
  <path d="m144.65 200.46c21.076 2.4781 33.823 6.754 33.823 11.346 0 7.4431-32.897 13.477-73.477 13.477-40.58 0-73.477-6.0338-73.477-13.477 6e-6 -4.5933 12.755-8.8703 33.841-11.348"/>
  <path d="m77.517 206.76c-27.024-10.888-46.098-37.355-46.098-68.277"/>
  <path d="m132.48 206.76c-18.332 6.8206-37.981 6.7021-54.967 0"/>
  <path d="m178.58 138.48c0 30.922-19.074 57.388-46.098 68.277"/>
  <path d="m178.48 138.48a73.477 13.477 0 0 1-73.477 13.477 73.477 13.477 0 0 1-73.477-13.477 73.477 13.477 0 0 1 73.477-13.477 73.477 13.477 0 0 1 73.477 13.477z"/>
  <path d="m94.494 132.58s-26.516-18.258-11.642-37.117c14.874-18.859 11.264-49.439 11.264-49.439s19.052 27.639 0.45357 47.927c-18.599 20.288-0.0756 38.629-0.0756 38.629z" stroke-linejoin="round"/>
 </g>
</svg>
