<svg xmlns="http://www.w3.org/2000/svg" font-family="monospace" font-size="14" text-anchor="middle" viewBox="0 0 989 734" width="1400">
  <path fill="#111" d="M989.5 0v733.5H0V0z"/>
  <g fill="#cdbae7" stroke="#cdbae7" stroke-width="1.2">
    <path d="m129.2 135.4 4.2 5.6-10.1 3.2zm125.1 3.9 4.3 5.5-10.1 3.3zm12.6 49.9 1.7 6.7-10.5-.8zm63.6 279.9h7l-3.5 10zm10-103.6 6.7 1.9-6 8.7zm20.3-218.2 6.9 1.5-5.6 9zm8.1 517.4.3-7 9.9 4zm1.3 17.3-.7-6.9 10.3 2.5zm.1-30.2 1.9-6.7 8.7 6.1zm6-17.8 7.9 7-10.6-.5zm4.4-8 4.5-5.4 5.4 9.1zm5.3-342 3.8 5.8-10.2 2.6zm.6 86.5 6.4-3 1.1 10.5zm21.7-221.7 6.9-1.5-1.2 10.5zm11.9 447 6.7-1.7-.9 10.5zM437 32l-10 3.3 6-8.8zm23.7 123.5 6.3-3.2 1.4 10.5zm16.2 443.9 6.2 3.4-8 7zM489 486.8l4.8-5.1 4.9 9.3zm6.3 219.6 10.3-2.6-.7 7zm9.4-83.4 4.2 5.6-10.1 3.2zm2.3 27.7 8.7-6 2 6.6zm2 18.8 10.1-3.2-.2 7zm2.7-34.5 2.7 6.4-10.5.8zm7.4 27.5-10.4-2 9.4-5zm71.2-287.9 7-1.1-1.9 10.4zm88.8 118.2 5-4.9 4.5 9.6zm63.8-212.6 6.2-3.4 1.8 10.4zm74.5 100.1 5.4-4.5 3.7 9.9zm105.2 109.3 4.9-5 4.7 9.5z"/>
    <g fill="none">
      <path d="M256.3 167.2c11.3 1.2 19.6 6 19.6 14.1 0 5.1-3.2 8.9-8.4 11.3m44 226.4c-211 100-39 187.8 62.8 218.4M334 430.8v38.4"/>
      <path d="M338.4 553.5c2.4 11 6.3 22.9 12.4 32.7a174 174 0 0 0 32.9 37.8"/>
      <path d="M340 313.8C70.7 388.4 119.1 585 371.7 648.6"/>
      <path d="M350.9 46.6C88 48.6 3.7 50.5 4 180.4l.9 370.3c.2 127.4 66.8 128.5 364.4 128"/>
      <path d="M351.7 50.9c-49 12.8-138.2 39.3-206.7 78.5a169 169 0 0 0-14 9m223.6 188.1-10.9 40.3m15.1-302.4-102.7 78M368.9 325l21 44.3M380 78.1l-15.8 70m31.8-70 15.8 70M406 430.9c1.2 77.4 7.6 123.2 17.6 164M410.2 71.5c12.3 16.5 27.5 38 39.8 58 4.8 7.8 9.7 16.5 14 24.6m-48.8-139c9.9-4.5 19.2-4.7 22.5 2 2 4.2.6 8.5-3 12.4m-13.9 30c113.5 62.6 151.7 194.7 173 314.7M425.2 45.4C523 57.1 633 80.8 746.1 278.5M425.3 422.9l66.2 61.4"/>
      <path d="M467.5 196.9c-6.6 62.4-221.1 69.7-329.9 122.4C26.6 373 53.2 596.7 369 661"/>
      <path d="M470.5 198.5c-10.6 44.8-46.6 64.6-82.8 88.5m117.9 390.3c9.8 6.2 15.2 14.1 12 22-2.1 4.9-6.6 7.4-12.4 8m3.6-158L480 601.2m118-178.7c-3.3 126.8-48.5 170-91.4 203.4M610 417.4l71.8 73.1m7.6 45c-48.7 44.4-137 85.5-176.4 102.7"/>
      <path d="M760.7 323.7c26.5 223.8-41.5 296.7-243.8 324.4m254.4-328.3 49 58.5"/>
      <path d="M839.8 425.6c-12 131-43.7 191.7-320.8 233.7m336.9-239.8 69.1 67.6"/>
      <path d="M932.5 538.2c-116.2 85.7-273.2 113.7-413.8 131.9"/>
    </g>
  </g>
  <g fill="#191724" stroke="#57d" stroke-width="1.2">
    <circle cx="206" cy="181.3" r="47.9"/>
    <circle cx="334" cy="404" r="26.5"/>
    <circle cx="334" cy="517.3" r="31.9"/>
    <circle cx="357" cy="181.3" r="18"/>
    <circle cx="360" cy="305.4" r="21.1"/>
    <circle cx="388" cy="41.2" r="37.2"/>
    <circle cx="406" cy="404" r="26.5"/>
    <circle cx="419" cy="181.3" r="18"/>
    <circle cx="444" cy="666.8" r="58.7"/>
    <circle cx="526" cy="517.3" r="31.9"/>
    <circle cx="598" cy="404" r="18"/>
    <circle cx="707" cy="517.3" r="21.1"/>
    <circle cx="760" cy="305.4" r="18"/>
    <circle cx="841" cy="404" r="21.1"/>
    <circle cx="84" cy="181.3" r="47.9"/>
    <circle cx="955" cy="517.3" r="26.5"/>
    <g fill="none">
      <circle cx="526" cy="517.3" r="35.9"/>
      <circle cx="444" cy="666.8" r="62.7"/>
      <circle cx="206" cy="181.3" r="51.9"/>
      <circle cx="334" cy="517.3" r="35.9"/>
      <circle cx="357" cy="181.3" r="22"/>
      <circle cx="419" cy="181.3" r="22"/>
      <circle cx="707" cy="517.3" r="25.1"/>
      <circle cx="84" cy="181.3" r="51.9"/>
      <circle cx="955" cy="517.3" r="30.5"/>
    </g>
    <circle cx="477" cy="181.3" r="18"/>
  </g>
  <g fill="#eee">
    <text x="120.1" y="395.6">[a-z--l]</text>
    <text x="204.7" y="448.8">[a-z--is]</text>
    <text x="206" y="187.1">integer</text>
    <text x="216.6" y="109.7">0</text>
    <text x="250" y="519.5">[a-z--e]</text>
    <text x="298.6" y="187.1">[0-9]</text>
    <text x="337.9" y="109.7">[1-9]</text>
    <text x="334" y="409.8">els</text>
    <text x="334" y="523.1">else</text>
    <text x="342.1" y="461.8">e</text>
    <text x="355.5" y="357.8">s</text>
    <text x="357" y="187.1">=</text>
    <text x="360" y="311.2">el</text>
    <text x="373.4" y="584.5">[a-z]</text>
    <text x="383.4" y="109.7">=</text>
    <text x="394.5" y="357.8">i</text>
    <text x="388" y="47">start</text>
    <text x="406" y="409.8">eli</text>
    <text x="411.6" y="109.7">+</text> <text x="419" y="187.1">+</text>
    <text x="441.2" y="267.2">l</text>
    <text x="445.4" y="109.7">e</text>
    <text x="444" y="672.6">identifier</text>
    <text x="448" y="523.1">[a-z--f]</text>
    <text x="49.7" y="290">[a-z--eil]</text>
    <text x="478.1" y="461.8">f</text>
    <text x="472.7" y="22.7">[\t\n ]</text>
    <text x="477" y="187.1">e</text>
    <text x="515.4" y="584.5">[a-z]</text>
    <text x="526" y="523.1">elif</text>
    <text x="540.2" y="699.3">[a-z]</text>
    <text x="574.3" y="259.1">i</text>
    <text x="598" y="409.8">i</text>
    <text x="625.5" y="523.1">[a-z--f]</text>
    <text x="664.6" y="461.8">f</text>
    <text x="660.5" y="584.5">[a-z]</text>
    <text x="707" y="523.1">if</text>
    <text x="702.2" y="192.2">l</text>
    <text x="760" y="311.2">l</text>
    <text x="797.1" y="461.8">[a-z--e]</text>
    <text x="807" y="347.8">e</text>
    <text x="841" y="409.8">le</text>
    <text x="84" y="187.1">integer</text>
    <text x="863.3" y="523.2">[a-z--t]</text>
    <text x="902.1" y="451.8">t</text>
    <text x="905.3" y="584.5">[a-z]</text>
    <text x="955" y="523.1">let</text>
  </g>
</svg>
