<?xml version="1.0" encoding="UTF-8"?>
<svg version="1.1" viewBox="0 0 100 66" xmlns="http://www.w3.org/2000/svg" fill="#eee">
 <g transform="translate(0,20)">
  <path fill="#aaa" d="m0 20h100l-3e-6 6-50 20-50-20z"/>
  <path d="m50 0 50 20-50 20-50-20z"/>
 </g>
 <g transform="translate(0,10)">
  <path fill="#aaa" d="m0 20h100l-3e-6 6-50 20-50-20z"/>
  <path d="m50 0 50 20-50 20-50-20z"/>
 </g>
 <path fill="#aaa" d="m0 20h100l-3e-6 6-50 20-50-20z"/>
 <path d="m50 0 50 20-50 20-50-20z"/>
 <text transform="rotate(22)" x="22.5" y="15.5" stroke="none" fill="#111" font-family="Overpass" font-size="20">..--..</text>
</svg>
