<svg xmlns="http://www.w3.org/2000/svg" xml:space="preserve" viewBox="0 0 29.99 21.87"><path fill="#111" d="M17.75 21.79a10.73 10.73 0 0 1-9.01-8.47c-.21-.95-.25-2.83-.1-3.82.21-1.24.94-3.36 1.14-3.27.04.02 1 .5 2.12 1.09 1.53.78 2.04 1.09 2.01 1.18l-.26.74a5.6 5.6 0 0 0-.29 2.58 5.55 5.55 0 0 0 1.77 3.54 5.93 5.93 0 0 0 9.8-2.42c.2-.58.23-.8.23-1.73 0-.88-.02-1.16-.19-1.7a6.2 6.2 0 0 0-2.43-3.31L22 5.85l.81-1.58c1.07-2.07 1.38-2.63 1.45-2.63.14 0 1.61 1.02 2.1 1.44a10.8 10.8 0 0 1 2.52 12.83c-1.85 3.72-5.58 6-9.72 5.96-.52 0-1.15-.04-1.41-.08zM5.01 19.77A10.8 10.8 0 0 1 .41 7.66 13.1 13.1 0 0 1 2.1 4.27 10.67 10.67 0 0 1 7.4.47 8.34 8.34 0 0 1 10.82 0c1.47 0 1.63.02 2.56.27a10.72 10.72 0 0 1 6.9 15.28c-.1.1-.38-.02-2.14-.96l-2.1-1.11c-.04-.02.03-.24.14-.5.73-1.64.6-3.71-.34-5.32a7.4 7.4 0 0 0-.98-1.2 4.54 4.54 0 0 0-1.43-1.04 8.77 8.77 0 0 0-1.34-.53 6.96 6.96 0 0 0-2.75 0A6.11 6.11 0 0 0 5.1 8.76a6.9 6.9 0 0 0-.17 3.26 6.16 6.16 0 0 0 3 3.9c.02.02-2.19 4.27-2.23 4.27l-.69-.42z"/></svg>