<svg xmlns="http://www.w3.org/2000/svg" viewBox="0 0 91.4 55.1">
  <g fill="#0f0">
    <path fill="#f00" d="M26.6 13v20h-10V13z"/>
    <path fill="#ff0" d="M36.6 13v20h-10V13z"/>
    <path d="M46.6 13v20h-10V13z"/>
    <path fill="#00f" d="M56.6 13v20h-10V13z"/>
  </g>
  <path fill="#ccc" d="M16.6 35.1v20h40v-20z"/>
  <path fill="#eee" d="M12.1 3.3A19.8 19.8 0 0 0 .7 16.9a33 33 0 0 0 1 16.6 66.4 66.4 0 0 0 8.9 19 28.7 28.7 0 0 0 .3.3 14 14 0 0 1-.2-.4 63.7 63.7 0 0 1-2.5-5.6A75.8 75.8 0 0 1 4 32.9c-.9-4.6-1.4-10.1.1-15a17 17 0 0 1 9.7-11 33 33 0 0 1 11-2.9c4-.4 8.3-.1 12.3.4 9.2 1.3 18 4.3 25.4 7.3a193 193 0 0 1 20.4 9.7l8.5 4.9-8-5.6a169 169 0 0 0-20-11.2c-7.3-3.5-16-7-25.7-8.6A54 54 0 0 0 24.4 0C20.2.4 16 1.4 12.1 3.3z"/>
</svg>
