<svg xmlns="http://www.w3.org/2000/svg" viewBox="0 0 375 512">
<path d="M344.2 301.3c14.4-5.6 26-11.7 30.3-18.5V162.3c-1-9.9-15.7-18.2-30.4-23.3 14.6-5.6 26.2-11.7 30.4-18.6V0C346.9 32 106.4 56.7.2 68.3v122a715.6 715.6 0 0 1 146 23.6c-55.3 7-109 12.7-146.2 16.7v121.9c50.3 2.4 97 11.2 142.1 22.9C88.4 382 36.6 387.6.4 391.6V512c102.1-9.1 348.4-27 374.1-68.3V331.3c-.2-17.6-15.1-23.6-30.3-30zM321.5 148c13.3.6 28.6 6.5 38 14.3 3.4 3.2 3.6 6.4-.2 9.7-32.5 14.6-105.5 27.4-181 37.7A896.9 896.9 0 0 0 55 183.2L321.5 148zm37 185.5C325 348 250.7 360.9 174.6 371.2a869.6 869.6 0 0 0-119.8-26l255.4-35.9c12-3.4 35.3 3.6 48.5 15 2.7 3 2.4 6-.2 9.2z"/>
</svg>
