<svg viewBox="0 0 282 315" xmlns="http://www.w3.org/2000/svg">
 <g fill="none" stroke="#000" stroke-linecap="round">
  <g stroke-width="3">
   <path d="m25 125c20 24-8 115 11 115s-8-79 8-105">
    <animate attributeName="d" dur="2.3s" repeatCount="indefinite" values="M25 125c20 24-4 115 11 115s-8-79 8-105;M25 125c20 24-7 105 11 105s-8-69 8-95;M25 125c20 24-4 115 11 115s-8-79 8-105;"/>
   </path>
   <path d="m152 206c-12 6 5 42-8 42s8-35-8-54">
    <animate attributeName="d" dur="2s" repeatCount="indefinite" values="M152 206c-12 6 3 50-8 50s8-43-8-62;M152 206c-12 6 5 44-8 44s8-37-8-56;M152 206c-12 6 3 50-8 50s8-43-8-62;"/>
   </path>
   <path d="m129 172c-50 27 7 117-22 117s14-79-21-114">
    <animate attributeName="d" dur="3s" repeatCount="indefinite" values="M129 172c-50 27 2 123-22 123s14-85-21-120;M129 172c-50 27 5 117-22 117s14-79-21-114;M129 172c-50 27 2 123-22 123s14-85-21-120;"/>
   </path>
   <path d="m243 207c-39 54 1 98-20 98-22 0 13-51-17-77">
    <animate attributeName="d" dur="2.5s" repeatCount="indefinite" values="M243 207c-39 54 0 103-20 103s13-56-17-82;M243 207c-38 48 0 87-20 87s9-42-17-66;M243 207c-39 54 0 103-20 103s13-56-17-82;"/>
   </path>
   <path d="m281 153c-18 59 9 115-7 115s5-63-10-87">
    <animate attributeName="d" dur="2.2s" repeatCount="indefinite" values="M281 153c-18 59 8 119-7 119s5-67-10-91;M281 153c-18 59 13 99-7 99s5-47-10-71;M281 153c-18 59 8 119-7 119s5-67-10-91;"/>
   </path>
   <path d="m152 206 1 9 10 13 4 8 3 15 15-2v-18l21-3"/>
   <path d="m243 207 3-12h7l11-14m-239-56-14-15-6-25-3-10 3-11 13-13-1-7 38-29 21-7 22-2 17-4 14 2h33l26 9 23 11 17 8 23 22 18 22 4 10 5 9 3 21v37"/>
   <path d="m129 172 7 22" />
   <path d="m44 135 26 5v13l16 22"/>
  </g>
  <g stroke-width="2">
   <path d="m126 50 11-14 16-8 8-11-12-7m12 7 11-2m-10-5-1 7m-93 82 13-9 17-3 11 3 8-3m-36 3 3-12 7-16 1-8m-24 4 2 17m-22-5 2 7m51-29 2 12-3 10m68-25s1-7 8-10l8-5v-5l-10-6m10 11s2-4 7-5c6-1 7 1 7 1m-3 10 14-4m-10 15-6 10m-33 20-22 9-21 1 1-11 8-26-5-9m-99 6 11-10h23m-23 0 19-14m166 10 12 7 12 12h-13l-15-4m-27 0 6 9-10 20-23-1-3-12v-15l11-4-1-7-15-7m-70 6-24-2-1-13 19-5m-18 18-5 4-5 9m15-3 8-9m-28 68 25 1v-6l-11-2-13-8-11-9-1-5-11-5v-12l8-8 6-1m46 97-2-11-10 2-7-14-32-17-20-5m6 6 7-3m0 15 22-6m18 6v-6l-29-8-18-17-6-1m22-12 6-4-9-15m9 15 10-1v-4l10-7 10-1 6-5 18 1 5-6h4l4-17-8-8v-6l8-8m0 22 18-11v-6l6-4m-6 10 6-1 2-5m115 181-34-27-1-5m1 5-55-4 11 24v15l-16 3m16-3v19l17 9m-17-9-5 6m48-65 16-4 14 24-4 3m4-3 14-5 4-5 5 8m-5-8-1-5h-10m24-1-10-11v-7l-20-1-9-6-3-10 12-15m-9-24 1 11-5 11 1 17-10-7-19-4-13 3m29 14-11 4 8 12m-8-12-29-3-7-4h-13l-13 6 6 4m22 2 1 7 38 9m-67-22-27-1-13 7-3 5m18 2 14 9 11-1m-15 10 17-7 11-1m-55 5-13-34-23-12m8-11 15 11v12m7-17-7 5m8 33-16 10m15-48 8-1-3 8m3-8v-7m0 7h11l7-4h13l6 3 12-6 14 1 14-10 17-1 9-5 16-31m-7 14 9 1m20-10-3 4 1 10 9 1s7-7 9-6l6 6-1 10m-15 6v30l8 1 11 8 5-4-1-36-2-5-3 26-3-26m-15 21 7-9"/>
  </g>
 </g>
</svg>
