<svg xmlns="http://www.w3.org/2000/svg" width="534.7" height="522.8" version="1">
  <path fill-rule="evenodd" d="M113 304.4c-3.6.2-8.4 1.9-11.5 7.6-2.6 4.6-8.7 5.4-11.5 4.4-4.7-1.5-10.8-2.6-16.6 1.5-5.9 4.2-12.2 1-11-6.5 1-7.6 3.8-14.4 11-18.6 16-9.1 4.9-15.5 13.6-24.7 8.8-9.2 6.8-12 6.5-24.5-29.5-4.4-46.2-13-65-36.3A114.8 114.8 0 0 1 .8 135.5c-2-29.3-.3-48.3 12.4-72.6 12.6-24.3 26-36 49-48.2C85.2 2.6 107.8-.3 128.8 0c20.9.4 34.8 2 46.6 8.7 11.8 6.7 22.6 15.2 29.5 15.2 7 .1 11.6-1.7 15-4.3.9 22.7-19.6 24.7-37.9 25.2-18.2.5-29.5-7.1-46.3-4.3-16.8 2.8-44.4 10.5-57.8 33.9-13.5 23.3-14 31.6-12.8 51.2 1.1 19.6 18 34.2 27.5 34.4 9.5.1 11.6-2.6 20-8 8.3-5.5 50.9-58.2 65.4-70a67.2 67.2 0 0 1 44.3-15.7c15.5-.2 19.5.4 32 5.5 12.4 5 20 14.5 30.1 20.3 5.2-3 8.4-7.6 13.1-11 16.9-12.4 25.6-15.7 45.7-13.7 11.5 1 26 7.7 34.7 15.2 15.5 13.4 28.3 32.1 38.6 46.3 8 11.1 17.4 24.3 31 28.5 14.7 4.5 25.7-14.6 27.4-25.2.9-6 2-11.2 2.1-17.8a84 84 0 0 0-2.6-21.5 76.5 76.5 0 0 0-8.7-19.4 68.7 68.7 0 0 0-24.9-23.9 78.8 78.8 0 0 0-26.5-8c-10-.2-17.6 3.1-26.8 3.8-11.1.7-31 3.2-39.8-5.4-5.6-5.5-6.3-9.1-7.2-16.3a17 17 0 0 0 9 3.6c7 .6 13.5-5 19.1-8.4 4.6-2.7 11.2-7.6 17.3-10 15.7-6.4 35-6.2 51.5-4.5 13.3 1.4 30.5 7.3 42.1 13.9 11.7 6.6 23 17.7 31.2 28.2a95.2 95.2 0 0 1 19.8 41c4.8 21.1 6.1 52.8.3 73.6a144.8 144.8 0 0 1-32.7 53.8A83.8 83.8 0 0 1 454 236c.6 3.4.7 6.5 1.6 9.3 1.2 4 3.6 8.3 8.4 7 2-.6 3-1 5.5 1.2 2.6 2.2 1.3 10.8-6 14.6-3.5 2-7.4 2.4-13.2 2.5-5.8.2-14.9.2-21.2-1-6.3-1-10-6-17-6.8-10.8-1.2-19.1-9-27.8-14.6-3.6-2.3-4.8-2.4-6.9-3.5 1.1 3.4 2.6 7 3.4 10.3.7 3.3.4 6.4.8 9 .4 2.7 1.2 4.7 1.6 6.9 1.7 1.5 2.3 3.9 5.2 4.6 2.9.7 7.4-.4 10.4-.8s5-2 7.3-1.6c2.3.5 4.6 2.1 6.5 3.7 2 1.6 3.7 1.8 5.2 5.7 1.6 4 3 12 3.3 17.3.2 5.3-.4 10.2-2 14.4a24 24 0 0 1-7.2 10.3 113.6 113.6 0 0 1-18.3 14.7c1.3 2 1.8 3.7 3.8 5.7 2 2.1 6.2 4.4 8 6.6 2 2.2 2.9 3.7 3 6.2 0 2.4-.2 5.6-2.2 8.3-5 6.6-10.8 7.8-17.9 10.9 1.2 7.5 2.2 12.8.5 20.2-.7 3-2.3 10-6 11.7-3.8 1.8-11 1-15.6 1.7-4.5.7-7.1 1.4-10.7 2.1-2.1 3.1-5.4 6.6-6.5 9.4-1 2.8-.7 3.8.2 6.7 1 2.8 4 7 5 10.4.9 3.3 1 7 .2 10.3-.8 3.4-2.3 5.8-5.1 8.8-2.9 3-8.5 5.3-11.3 7.7-2.9 2.5-5.7 2.8-4.9 6.8 1 5.5 9.1 14.4 15 16.5 3.4 1.3 8.1 1 12.3-.9-.2 4.7-4.3 7.9-7 11a42 42 0 0 0 19-11.2 47.5 47.5 0 0 1-14.3 18.2c-7.7 6.4-7.7 5.1-11.5 7.6 7 1.4 13.5 1 18.9 0-3 1.7-7.8 4-14.3 4.7-6.4.7-10.4.2-16.2-1.2-5.8-1.4-11.1-6.7-18.2-10.3.7 2.6 1.2 5.7 4.2 8.4s7.4 4 12.2 6.4c-6.1-.7-12.5-1-18.4-2.2a43 43 0 0 1-10.6-3.6c-3.3-1.6-5.7-4-8.6-6 1.4 2.7 1.8 5.8 4.1 8 2.3 2 6.1 2.9 9.2 4.4-3.2-.1-6.3.6-9.6-.3a27 27 0 0 1-9.9-4.6c-3.4-2.6-7-5.7-9.9-8.9-3-3.2-6.6-7.3-7.7-10.3-1-3 .7-5 1-7.5-2 1.4-4.5 2-6 4-1.6 2-3 3.7-2.3 7.1.7 3.4 3.8 7.5 6 11.2-6.6-5.3-10.2-7.4-11.8-13.9-1.5-6 2.3-11.5 5.2-16.1 1.4-2.3 3.6-4.4 4.9-6.6-3-3-6.4-5.4-8.9-8.7-2.5-3.3-3.6-7.8-6.2-11s-6-5.2-9.1-7.8c2.6 5.8 7 12.8 8 17.3 1 4.4-1 7.1-2.7 9.5-1.5 2.4-4 3-6.5 4.4-2.4 1.5-6.2.4-7.6 2.5-1.4 2.2-1.8 5.5-.5 7.7l5.7 8.9a27 27 0 0 1-7.3-6.3c-1.6-2.1-4-4.1-4.4-7-.4-3-.5-5.5 1.4-8.1 1.9-2.6 7-3.5 9.4-5.5 2.3-2 3.6-3.3 3.5-5.9-.2-2.6-2.7-4.4-4.9-6-6.6-5-15.1-9.6-20.7-15.6a20.8 20.8 0 0 1-5.4-8.5c-.6-2.3 0-4.2 1.6-7 1.6-3 7-6.8 7.7-9.9.6-3.1-2.1-3.8-4.6-4.9-2.4-1-7.1.6-9.4-1.3-2.3-2 .6-6-2-8.2-2.5-2.2-8.4-1-11.5-3.3a16 16 0 0 1-5.4-8.8c-1-3.5-1.1-7.2-.4-9.7.7-2.5 2.8-3 4.1-4.3 1.3-1.3 2.4-2.3.7-4.3-1.7-1.9-7.3.1-10.6-2.3-3.2-2.5-1.3-8.4-3.5-11-2.3-2.4-6.5-1.5-8.6-2.3-2.2-.8-3 2-4.4-2.4-1.3-4.5-1.3-17.8-3.1-22.7-1.8-5-5.4-.3-7-5.3-1.6-5 0-12.8-.8-20.2l-3.3-20.3A71.3 71.3 0 0 1 121 301c-1 30.6-3.9 48.6 6.5 82.5 10.4 34 31.4 54 59.7 82.7-37.4-28-55.2-50.8-66.4-80-11.2-29.2-9-53.6-7.9-81.7zm198.7-12.3c2.9.1 6.4.9 8.4 2.2 2 1.3 4.2 2.4 6 4.2 4.6 4.7 8 10.3 9.5 16.8 1 4 1.1 9.4 1.5 14.2-1.4-4.5-2.3-9.1-4.3-13.1a32.1 32.1 0 0 0-15-15.3 8 8 0 0 0-4.8-.6c.6.9 1.5 1.6 1.5 3 0 1.2-.2 3.8-2.5 4.9-3.6 1.7-7.5.5-10.3-2a9.1 9.1 0 0 1-2.3-10.2c1.8-4.3 8.4-4.3 12.3-4zm-36-6c.3-7.4 3-13.6 9.5-17.2 3.4-1.9 8.7-4.3 13.5-4.8 4.6-.6 15.9-.2 22.7 2.9 5.2 2.4 8.7 6 13.3 8.8 4.5 2.7 7.8 4.5 12.1 7.5 6.7 4.7 10.6 9.8 15.3 12.9 2.2 1.4 5.3 1.2 8.3 2.1-2.3.7-5.3 1.4-7.8.7a35 35 0 0 1-9.8-5.9 66.4 66.4 0 0 0-11-8c-2.8-1.6-7.4-3.5-10.4-5.5s-8.3-6.3-11.2-7.8a36.2 36.2 0 0 0-14.5-2.8c-5.7.2-14 1.1-18.4 5.1-4.3 4-6 7.5-5 12.6 1.6-1.8 2.7-4.2 4.4-5.6 3.4-3 7.3-3.1 11.6-2.5 4.8.6 7.2 3.3 8.7 7.9-1-.8-3-2.5-4.5-3a11 11 0 0 0-9.8.9c-4 2.1-2.9 5.3-3.4 8.9-.3 1.6-1 2.9-1.4 4.4-1.5-.4-2.9-1-4-2.2 0 1.7-.2 3.1.1 5 .4 1.8 1.3 4 2 6-2.9-2.7-5.7-5.3-7.5-9-1.8-3.5-3-7.5-2.9-11.5zm4.8-53.5c2-3 2.6-7.8 3.9-11.6-.5 4.9.5 10.2-1.9 13.6-2.3 3.5-6.5 3-9.9 4 2.7-2.1 5.8-3 7.9-6zm-49.2 71.3c2.6-2.1 9.8-.4 15 0l-11.4 3c-.3 1.2-.2 2.7-1 3.8-1 1.1-2.6 1.5-3.9 2.3.2-3.4-1.3-7 1.3-9zm37.5-148.2c3.2 1.7 7.2 4 10 4 2.8.1 3.6-1.8 5.2-2.9a126 126 0 0 0 10 25.5c1.9 3.2 3 1.7 4.4 5 1.4 3.2 2 9.7 3.4 13.9 1.3 4.1 3 7.1 4.6 10.7-3.9-5.5-9-12.6-11.1-17.2-2.2-4.6-.8-5-2.6-9.4-1.7-4.4-5.3-11.2-8-16.8-1.8.2-4.2.6-5.7.1-1.4-.4-1.1-2-2.4-3-1.3-1-3.5-.6-5.4-2.1-1.8-1.6-2.2-4.9-2.4-7.8zm-17.1 41.8c3-.3 6.7.5 9.5.4 2.8-.2 4.8-1 7.2-1.4-.4-4.2 0-12-4-14.7-2.4-1.9-12.8-.5-15.5.1-6.2 1.3-13.4 5-19.4 7.4 5.7-4 10.7-7.8 17.6-9.9a46.3 46.3 0 0 1 18-1.7c2 .6 2.4 1.4 3.6 3 4 5.7 4 10.6 5.1 17.3 1 1.6 2.2 2.7 3 4.3a21 21 0 0 1 1.6 6.5c-1.1-1.6-.4-3.5-3.4-4.7-3-1.1-7.5 0-11.5.4 3 2 4.4 4 4.5 8.5.1 5.2-4.3 9-8.9 9.3-6.3.5-9.6-.9-12.2-6.3-1.1-2.4-.3-5.3-.4-7.6-7.7.5-7.6.2-13.2 5 3 4.4 5 7 10 9.6 2.9 1.5 6 3 9.5 3.6a48 48 0 0 0 13 .6 14 14 0 0 0 8.4-4.2c2.8-2.5 3-6 4-9a26 26 0 0 1-1.5 8.3c-3.1 6-8.5 7.8-14.9 7.9-6.1 0-13.7-1.4-19.4-3.8-4.6-2-12.2-7.3-14-12-1.2-3.1-.2-7-.4-10.6 6.4-4.2 8-3.1 15.4-4.4 3.2-.5 5.3-1.7 8.3-2zM214.8 169c.2-2.5.5-2.5.7-3.7-5.7-1.6-8 2.2-11.4 9.1-1.3 2.6 0 4.2-1.4 5.9-1.4 1.7-3.5 1.5-5.7 3.1s-4.4 4.8-6.5 6.5c-4.2 3.5-10 5.6-14.8 8 3.3-2.5 9.8-6.3 12-9.8 1-2 .9-5.5 2.6-7.2 1.7-1.7 2.4-3 4.6-3.4 2.2-.4 1.3-3 2-5 .8-2.1 2.2-3.6 3.7-5.6 1.6-2.1 3.5-5.2 6.5-6.3 3-1.1 7.8 0 10-.6 2.3-.6 1-2.3 2.7-3.3 1.6-1 4.9-.5 7-1.6 4-1.9 6-5 8.3-8.4a43 43 0 0 1-2.4 19.3c-3 7.7-6 12.3-14.3 17-2.9 1.7-5.7 2.2-8.1 3 1.4-1.8 3.4-2.6 4.2-5.6.8-3 .2-8.9.3-11.4zm135 35.5c-3.9.2-4.8-.3-8 2l5.1 8c-.1-5.3.4-6.3 3-10zm-10.3-3.9a47.5 47.5 0 0 1 16.3-4.6c2.4-.1 6 .2 8.5.4 2-3 4.7-5.5 5.7-9 .6-2.3.3-13-.8-15.7-3.3-8.1-6.5-8.4-11-13-3.4-3.4-3.5-8.5-4.5-14.3-.3-2-1.4-4.7-1.8-6.9-6-1-12.3-1.3-19.2-1 3.3-3.2 6.5-6 7.5-10.8 1-4.8.2-10.6-2.5-14.9-2.8-4.3-7-8-11-11.5-4-3.4-9.7-6.3-13.5-9.2 5-1.7 10-4.3 14.7-5.2 12.5-2.4 23.3 1.3 35.3 8.5 7 4.3 12.8 8.3 20.1 16 7.3 7.6 16.4 21.7 23.5 30 7 8.4 12.8 15 19 20 6.2 4.9 11.8 6.3 17.6 9.5l9.2 9.7 7.4-9.2 12 1.4 2.5-13.4 11-3-1.9-18.1 8-5.6-6-11.2 6-12.3-7.8-14 3-13.6-9-7.8-1.3-14.3-12.7-4.9-5-12.5-14.3-.1-7-9.3-9.6.6-10.7-1.1-6-4.5-8.8 5.8-10.6-5.5-21.1 8 13.7-12 14.3-2.2 11-2.8 14.7 4.8 13-3.3 12.5 7.4 13.2-.7 6.5 11.7 13.2 1.5 7.2 13 8.3 4.5 2.2 16.7 7.4 7-3.3 14.5 8.7 11-8.1 11.9 8.7 7.4-11.2 9.8L514 146l-13.6 4.4 8.9 12.6-11.2 2 7.3 13.9-12.5-.2 6.3 10.4-13.8-1.7 3.3 15-10.4-9.2-3.6 18.2-7.2-13-3.9 16.2-8.8-12 .2 17-9.8-15.3c2 8.7 1.7 18.2 7.4 26.4a67.2 67.2 0 0 0 42.7-19.9c12.4-11.8 27.1-36.6 31.1-52.3 4.6-17.9 4.7-50.8.2-69-4.3-17.6-10-26-20-40.3-9.5-10.2-19-21-31.1-28.2-17.9-10.7-40.8-13.6-61.1-13.3a72.5 72.5 0 0 0-25.6 4.8C377 16.8 367.6 26 355.6 30.7c-3.9 1.5-7 1.6-10 0 3 6 6.2 8.7 13.7 10.9 5.5 1.6 18.4.6 27.4-.3 9.5-.9 14.5-3.7 27.6-3.5 12.7.1 22.8 5 28.3 8.1a69.8 69.8 0 0 1 35.2 45.8c2 7.2 2.8 15.3 3 22.4a69 69 0 0 1-2.2 19.8c-4 15-13 30.1-31.4 27.8-11.2-1.5-28.2-22.6-33.8-30.3-11.5-15.6-23.3-32.9-37.6-45.9A58 58 0 0 0 343.2 71c-22.1-2-28.7 2.2-45.3 16 3.4 1 6.7 1.6 10.1 3.2 7.7 3.5 14.8 8 21 13.7 6.4 6 9.3 9.8 9.5 18.5.1 5.7-4.6 10.3-8.9 14.5-2.6 2.5-6.1 4.8-8.3 6.8-2.8 2.6-6.3 5.4-2.8 9.6 1.4 1.6 3.7 2.7 5.7 4.2 3 2.3 1.7 11-2.5 13.2-5.2 3-11.5 2.6-15.8-1.3 5.4-.8 9-1.6 8.8-6-.1-2.6-3.4-4.8-6.6-6.3-7.9-3.5-13.8-3-21.5-8.6-7.9-5.7-8-8.7-10.2-17.6-3.8.4-7.2.5-12.3 2.1-5 1.7-10.7 5.7-15.3 6.7-11.5 2.5-13.8 1.7-20.2.1-11.1-2.9-25.6 2-40 6.7-2.4.7-12.1 0-18.7 2.3-10 3.5-24.2 12-32.4 19-12.4 10.4-28.6 41.6-37.8 77.4-1 11 2.1 18.3-4.8 23.6-6.8 5.3-6.6 19-9 22.8-2.3 3.8-5 2-10 7.5-5 5.3-7.5 4.4-7.4 14.6a35 35 0 0 1 16.1-6.4c5-.1 5 6.3 17.5-6.1 6.7-6.7 19.6-6.9 28.6-9.8 9-3 25-9 41.2-27 16.2-18 24-37 27-64.6.5 4.9 1.4 10.4-.7 23.8-2 13.5-6.6 28.6 3 46.7l5.8 11.2c-3.5-4.8-10.4-12.6-12.4-18.2l-4.8-12.8a96.5 96.5 0 0 1-28 31.7c-.5 7.5-.7 15.2 1.8 22.4 2.4 7-1.5 15.3.4 20 1.8 4.7 6.1 2 7.5 6.7 1.4 4.8-.7 14.2 1.4 18.8 2.2 4.6 7.5 1.8 10.1 3.3 2.6 1.5 3.4 3.6 4.8 5.5 1.4 2-.5 6.7 2.3 8.2 2.8 1.5 7.1.2 10 1.6 3 1.5 3.4 5 2.7 8.1-.7 3.1-3.8 4.6-5.2 7.7a8.2 8.2 0 0 0 .5 8.3c1.6 3 5.2 4.5 8.9 6 3.6 1.5 8.7.7 12.4 2.7 3.8 2 7.2 6 9.1 9 2 3 2.6 5 2.5 8.1-.1 3.1-1.4 6.7-3 9.7-1.7 3-5.4 6.6.3 12.3 5.7 5.8 5.5 3.3 8.8 7-.4-6.4-3-11.6-1-16.5 1.9-4.8 7.7-5.6 10.7-7.8 3.1-2.2 4.9-5.1 7.3-7.7 0 3.3.3 6.9 0 9.4-.8 5-2.3 9.5 5.2 10.3 3.4.4 6.7-1.8 10.2-3.1-1.8 3.3-5.1 6-5.6 10s.1 8.5 2.9 12.5 7.6 7 11.1 9.3c3.5 2.4 5.4 2.5 8.1 3.8.2 4-.6 8.2-.1 11.9.4 3.7 1.6 7 3.7 10 2.2 3.2 5.6 5 8.9 7.2-1.8-4.1-5.4-8-5.4-12.5 0-4.3 1.4-7.4 5.7-11.3 4.2-3.9 14.2-7.2 19-11 4.6-3.8 6.1-6.1 7.8-9.8 1.7-3.6 1.2-9.5 1.6-12.8 1.5 4.6 1.7 6 2.2 10.9.5 4.8-2.8 11.5-4.2 15.1 5.8-2.8 9.5-7.3 11.4-11.7 1.2.8.6 2.8 1 6.7 2.1-2 4.5-3.6 6.6-5.6 2-2 4.4-3.7 5.4-6.4s.6-5.6-.2-8.7c-.7-3.2-4.3-6.9-6.2-10.3-1.9-3.5.4-6.8.3-11-3.9-.7-7-2.6-11.4-2-4.4.7-9.4 5.6-13.9 5.6s-7-4.1-10.6-5.3c-3.7-1.1-7.4-1-11-1.5 4.6-4.5 22.7-6.6 35-8.6 11-1.8 21.8-2.8 32.8-3 5 0 11.3 1.6 14.7.6 3.4-1 2.7-3.3 3.7-5.8 2.9-7.2 1.5-13.5 0-20.6-10-1.2-20.3-2.6-30.3-1.9-9.8.8-21.3 5.4-31.4 5.7-8.8.3-21.7-1.6-29.2-6.2-9.2-5.6-16.3-17.6-18.9-21.5-4-6.3-9.2-18.6-12.4-24.3-3.1-5.6-3.8-7.2-6.5-9.5-2.6-2.4-6.2-2.6-9.3-3.8 3.6.3 7.5-.8 10.8 1 4.8 2.9 10.3 14.5 13.4 19.5 3.2-10.8 2.4-15 11.8-21.1-7.6 8.4-7.7 14.8-9.6 24.7 6.3 10.3 15 26.6 26.3 31.2a74.7 74.7 0 0 0 15.6 3.2c13.8 1.7 27.2-2.7 40.7-6 10-2.5 20-1.5 32.1-.8 4.1.2 13.8-2.2 15.8-6.4 1-2.2 1-4.9-.6-7.3-1.6-2.4-5.7-3.5-7.9-5.7-2.2-2.1-3.5-4.6-5.2-7-9.3 1.8-16.8 2.5-23.7 2.6 5-2 9.6-3.1 14.7-5.1 5.1-2 11-5.3 15-8 4.2-2.7 6.8-4.3 9.8-7.5 3-3.2 6.8-6.4 9-10.3 2.2-3.9 2.5-8.2 2.7-13a39 39 0 0 0-2-15.4c-1.8-3.8-5.4-5-8.2-5.9-2.9-1-4.9 1.4-7.8 1.7-3 .3-5.8 2.2-10 .2-4.4-2-9.5-6.2-13.8-12.3-4.4-6.1-7.5-16.1-12-23.8-7.6-13.2-17.1-25.6-26.2-38-.8-3-2-7.1-2.3-11.2-.6-7.2-.8-14.6 1.5-21.6 1.7-5.4 4.1-11 9.7-13.2 2.3-.9 5.1-1.2 7.1-.5 2 .8 4 3 3.2 5.6-.9 2.9-2.9 3-4.2 4.4a15.5 15.5 0 0 0-4 7.4c2.4 0 5.7-.3 7.8.3 2.6.7 5.1 2.4 6.5 6.2-3.2-2.8-4.8-4.1-8.7-4.2-1.9 0-4 .6-6 .9-.8 2.4-1.3 5.4-2.3 7.3-1 1.9-3.1 1.5-4 3.7-.7 2.2-.7 5.7-.3 8.6zm27.7-3.3c1.2.5 1.7.6 3.2 1.8 1.5 1.2 3.7 2.3 4.9 5.1 1.2 2.8 1.1 7.2.9 9-1-.4-2.6-.2-3.7-1.1-1-1-1.7-3.1-3.2-4-1.4-1-2.6-.8-4.1-1 .8 2.3 1.2 4.6.8 6.7-.8 4.6-3.5 6.9-7.8 7.4-2 .2-5-.4-6.5-.7.7 1.7 2 3.2 2.8 5 3.6-.6 6.3-.5 8.3-1.5 2-.9 4-3 6.6-3.8 2.5-.9 4.8-.9 7.5-1.3-2.1 1.9-3.6 3.7-5.7 5.6l4.7 14c3.4 2 6.6 3.1 10.9 5.8 4.2 2.6 9.3 7.2 14.9 9.8 5.5 2.5 8.8 4 14.6 5 5.8 1.1 10.4 5.8 16.1 6.6 5.7.7 16.4.9 20.8.4 5-.4 11.4-3 12-8.5-4.2 1-10.5.1-13.8-7.8-1.4-3.5-.7-9.9-2.9-14-2.2-4.2-5.2-5.5-8.9-10.6-3.6-5-9.6-13.1-13-20-3.3-6.8-4.1-14.5-7-20.6-2.8-6.1-7-11-10.4-15.8a55.8 55.8 0 0 0-25-22.5c-5.7-2.5-12.2-3.2-18.3-4.7-2.5 1-6 2.3-6.6 5.2-.6 3 .6 7.2 2.7 9.4 3.6 3.7 8.8 7.7 10.9 13.5 1.3 3.7 1.7 16.2.5 19.6-1.2 3.6-4 5.7-6.2 8zm1.1 29.7c-1 1-2 1.9-3.7 2.7-1.8.8-4.2 1-6.6 1.6 3.3 5.1 6.8 10.3 10 15.8 3.2 5.4 6 11.3 9 17-.2-3.3 0-6.7-.5-9.8-.5-3-1.8-5.7-3.2-10.2-1.4-4.6-3-10.8-5-17.1zm-89-113.4c-.5 5.1.3 13 1.4 18 1.2 6 2.5 9 7.3 12.6 8.8 6.6 14.4 5.5 21.2 9.3 3.3 1.8 7.4 4.8 8.6 8 1.2 3.2-.8 6.7-3.3 8 4.3.7 9.1-4.1 7.1-9.1-1-2.4-5.7-3.5-7.1-6a9.4 9.4 0 0 1-.8-7.5c1.2-4.5 10.2-8.6 13.3-12.2 4.9-5.5 6.7-10 4-17.1-3.9-10-18.8-17.9-27.7-21.8-4-1.8-6.4-2-9.6-2.9 6.6 3.9 13.4 7 16.7 15.5 2.8 7 .4 9.8.5 16 0 2.9 3.8 4.3 5.5 6.1 1.5 1.6 1.4 2.8.2 5-.1-2-1-3.5-2.5-4.5-2.5-1.8-5.2-1.4-6.5-5-2-5.6 2-10.8-2.5-17-3.4-4.6-7.9-9.8-14-10-2.8 0-5 .4-8 1.3l-4-4.9h-.2c-8.2-7.6-14-13.8-25.5-19a57.9 57.9 0 0 0-30.7-5.7 58.5 58.5 0 0 0-42 14.7c-15.5 13.3-55.2 64.3-64.9 70.7-9.6 6.5-11.8 8.7-23.8 8.7s-31-17-31.6-38.4c-.8-21.3-1-28.9 13.7-54.6 14.9-25.6 41.7-33.5 61.6-36.2 20-2.6 31.9 4.4 46.6 4.4 14.8 0 29.3-2.5 33.6-14.2-2.1 1.2-5 2.6-12.8 2.2-8-.4-19-9.5-31.3-15.7-12.3-6.1-26-6.8-43.7-7.2-17.6-.3-39.6 1-61.4 12.8a110.2 110.2 0 0 0-49.3 47.3C4.8 88.2 3 107 5 134.8c2 28 10.7 48.6 27.2 69 16.6 20.4 33.1 30.4 63 34.1l6.2-27.7-11.2 16.1.3-17.9L80.3 221l-4.5-17-8.2 13.6-4-19-12 9.6 3.8-15.7-15.8 1.7 7.3-10.9-14.4.2 8.4-14.6-12.8-2 10.2-13.3-15.6-4.6 12.9-12.4-12.8-10.4 10-7.7-9.3-12.5 10-11.5-3.8-15.3 8.5-7.4 2.5-17.5 9.5-4.7 8.1-13.7 15.1-1.6L80.8 22l15.2.8 14.3-7.8 14.8 3.5 16.9-5.1 12.5 3 16.3 2.3 15.7 12.6-24.1-8.4-12.2 5.8-10-6.1-6.9 4.7-12.2 1.2-11-.7-8 9.7-16.3.2L80 50.8 65.5 56 64.2 71l-10.4 8.2 3.5 14.2-9 14.7 6.9 13-6.8 11.8 9 5.9-2 19 12.5 3.1 2.8 14.1 13.7-1.4 8.5 9.6 10.4-10.2c19.2-9.5 27-14.9 42-31 16.9-18.3 26.6-35.3 49.2-47.8A66 66 0 0 1 242 85c17.1 3 22.8 13.2 35.4 24 1.3-2.4 1.6-3 3.8-4.9-.7 3.2-1.8 6.4-2 9.4z"/>
</svg>


