 <svg xmlns="http://www.w3.org/2000/svg" viewBox="0 0 50 50" fill="#eee" stroke="#eee">
  <path d="M43.3 4H6.7A2.7 2.7 0 0 0 4 6.7v36.6C4 44.8 5.2 46 6.7 46h36.6c1.5 0 2.7-1.2 2.7-2.7V6.7C46 5.2 44.8 4 43.3 4zM27 36.2c0 4-2.3 5.8-5.8 5.8a7 7 0 0 1-6.2-4l3.1-1.9c.6 1 1.6 1.9 2.9 1.9 1.3 0 2-.5 2-2.4V23h4zm8.7 5.8a7 7 0 0 1-6.7-4l3-2c.8 1.3 1.7 2.6 3.6 2.6 1.6 0 2.4-.8 2.4-1.9 0-1.3-.9-1.7-2.6-2.5l-1-.4C31.7 32.6 30 31 30 28c0-2.8 2.1-5 5.6-5 2.4 0 4.1.8 5.4 3l-3 2c-.6-1.2-1.3-1.7-2.4-1.7-1.2 0-1.9.7-1.9 1.7 0 1.1.7 1.6 2.4 2.3l1 .4c3.2 1.4 5 2.8 5 6 0 3.4-2.7 5.3-6.3 5.3z"/>
</svg>

