<svg xmlns="http://www.w3.org/2000/svg" xmlns:xlink="http://www.w3.org/1999/xlink" viewBox="0 0 400 400">
  <defs>
    <path id="sym" d="M295 286h9c0 25-4 43-13 54-8 12-18 18-30 18-10 0-20-4-29-12-9-7-17-27-25-60l-20-92-71 160H71l102-219c-5-28-12-49-19-63-8-13-17-20-29-20-9 0-17 3-23 10-7 7-11 18-12 32h-8c0-23 5-42 14-55 9-14 20-21 33-22 9 0 17 4 24 11 8 7 15 19 20 36 6 17 15 52 27 106l16 75c7 31 14 52 22 62 7 11 16 16 27 16 18 0 28-12 30-37z"/>
  </defs>
  <g>
    <animateTransform repeatCount="indefinite" dur="2s" attributeName="transform" type="translate" values="0 0;0 0;0 0;-20 -20"/>
    <use id="shad" xlink:href="#sym"/>
  </g>
  <use xlink:href="#sym"/>
  <animateTransform repeatCount="indefinite" dur="2s" attributeName="transform" type="scale" xlink:href="#shad" values="1;1;1;1.1" additive="sum" />
  <animate repeatCount="indefinite" dur="2s" attributeName="fill-opacity" values="1;1;1;0" xlink:href="#shad" attributeType="XML"/>
</svg>
