<svg viewBox="0 0 341.34 341.33" xmlns="http://www.w3.org/2000/svg" fill="#eee"><path d="M44.08.06a44.1 44.1 0 00-44.1 44.1V297.3a44.09 44.09 0 0044.1 44.09h253.14a44.09 44.09 0 0044.1-44.1V44.17a44.1 44.1 0 00-44.1-44.1H44.08zm0 18.46h136.84l.03 45.72c0 11.2 10.15 24.37 24.97 24.48l116.94-.12v208.7a25.64 25.64 0 01-25.64 25.64H44.08a25.64 25.64 0 01-25.64-25.64V44.16A25.64 25.64 0 0144.08 18.5zm207.54 10.43c2.53 0 4.6 2.1 4.6 4.69a4.65 4.65 0 01-4.6 4.69c-2.53 0-4.6-2.1-4.6-4.7a4.65 4.65 0 014.6-4.68zm52.87 0c2.53 0 4.6 2.1 4.6 4.69a4.65 4.65 0 01-4.6 4.69c-2.54 0-4.6-2.1-4.6-4.7a4.66 4.66 0 014.6-4.68zm-99.56 4.96h7.2l7.99 29.36 8-29.36h7.19l7.6 40.3-7.86 1.15-3.67-28-7.66 27.32h-7.2l-7.66-27.31-3.66 28-7.86-1.16 7.6-40.3zm77.05 8.36c5.46 0 10.26 3.94 10.26 9.72v22.7h-7.6V55.64c0-2.5-.4-5.23-3.73-5.23-4.06 0-6.66 5.85-6.66 5.85v18.41h-7.6v-17.8c0-4.49-1.6-7.61-5.06-10.33l6.4-3.88c1.46 1.1 3.86 4.63 3.86 4.63s4.8-5.03 10.13-5.03zm-34.22 1.15h7.73v31.26h-7.73V43.42zm52.86 0h7.73v31.26h-7.73V43.42zM49.32 86.41v33.68h61.2l-65 142.04h123v-33.68H97.04L163.24 86.4H49.32zm199.09 36.01c-23.43 0-44.52 21.68-44.52 21.68s-10.54-15.23-16.98-19.92l-28.12 16.7c15.23 11.71 22.26 25.18 22.26 44.51v76.73h33.39v-79.36s11.42-25.19 29.28-25.19c14.65 0 16.4 11.71 16.4 22.55v82h33.39V164.3c0-24.89-21.09-41.88-45.1-41.88z"/></svg>
