 <svg viewBox="0 0 501.7 435.1" xmlns="http://www.w3.org/2000/svg" fill="#eee" stroke="#eee">
  <path d="M153 223l122.3 211.6-56.2.5-32.6-56.8-32.9 56.5h-27.9l-14.3-24.7 46.8-80.5-33.2-57.8z M197.2 135.7L75 347.4 46.4 299l33-56.6-65.5-.2L0 218l14.2-24.7 93.1.3 33.5-57.7zm9.3 169.3H451l-27.7 48.9-65.5-.2 32.5 56.7-14 24.2h-28.5l-46.3-80.8-66.6-.1zm142.3-92.8L226.6.5l56.2-.5 32.6 56.9L348.2.3h28L390.3 25l-46.8 80.5 33.3 57.8z M153 223l122.3 211.6-56.2.5-32.6-56.8-32.9 56.5h-27.9l-14.3-24.7 46.8-80.5-33.2-57.8zm142-93.3H50.6l27.6-49 65.6.2-32.6-56.7 14-24.2h28.5L200 80.8l66.7.1zm9.5 169.6L426.8 87.7l28.5 48.4-33 56.6 65.5.2 13.9 24.2-14.2 24.7-93.1-.3-33.5 57.7z" />
</svg>
