<svg xmlns="http://www.w3.org/2000/svg" viewBox="0 0 100 100">
  <defs>
    <mask id="b">
      <g>
        <animateTransform attributeName="transform" attributeType="XML" dur="30s" from="0 50 50" repeatCount="indefinite" to="360 50 50" type="rotate"></animateTransform>
        <path fill="#fff" d="M0 0h100v100H0z"></path>
        <circle id="a" cx="50" cy="12" r="3" fill="#000"></circle>
        <use href="#a" transform="rotate(72 50 50)"></use>
        <use href="#a" transform="rotate(144 50 50)"></use>
        <use href="#a" transform="rotate(216 50 50)"></use>
        <use href="#a" transform="rotate(288 50 50)"></use>
      </g>
    </mask>
  </defs>
  <g fill="#eee">
  <path d="M12.129 36.352h13.178v23.336H12.862l5.912 11.666h31.684c.338 0 .563-.062.563-.37v-10.56c0-.308-.225-.367-.563-.367h-8.732V53.36h9.443c.862 0 4.61.248 5.809 5.037.375 1.473 1.198 6.263 1.761 7.797.562 1.72 1.947 5.203 6.48 5.196l23.018-.037 6.05-18.975H82.685c-.376 0-.526.247-.526.615v1.72c0 4.052-2.283 4.932-4.285 5.157-.957.107-3.804-.208-4.335-2.585-.904-5.083-2.946-7.056-5.905-9.39 13.445-7.763 7.198-22.6-6.082-22.6H14.789zm29.598.246h11.429c7.002 0 7.056 6.877 0 6.877H41.727z" mask="url(#b)"></path>
  <g mask="url(#b)">
    <g>
      <animateTransform attributeName="transform" attributeType="XML" dur="30s" from="0 50 50" repeatCount="indefinite" to="360 50 50" type="rotate"></animateTransform>
      <path d="M50.002.027c-.5 0-.965.26-1.227.684L46.18 4.906c-.409.034-.817.076-1.223.121l-3.363-3.61a1.45 1.45 0 00-1.338-.429 1.44 1.44 0 00-1.07.91l-1.723 4.61c-.4.114-.795.235-1.19.36L32.28 3.993a1.446 1.446 0 00-2.27.94l-.79 4.86c-.367.189-.73.385-1.092.585l-4.48-2.043a1.438 1.438 0 00-1.401.113c-.416.277-.66.751-.64 1.25l.171 4.932c-.319.255-.635.516-.947.78l-4.803-1.134a1.443 1.443 0 00-1.738 1.738l1.13 4.805a46.34 46.34 0 00-.776.944l-4.932-.172a1.444 1.444 0 00-1.363 2.043l2.043 4.482c-.199.36-.396.721-.586 1.09l-4.86.791a1.445 1.445 0 00-.94 2.27l2.876 3.992c-.125.394-.247.79-.362 1.19l-4.607 1.722a1.444 1.444 0 00-.478 2.41l3.605 3.361c-.045.406-.085.815-.12 1.223L.726 48.762a1.443 1.443 0 000 2.455l4.195 2.596c.034.408.074.817.119 1.222L1.434 58.4a1.442 1.442 0 00.478 2.408L6.52 62.53c.115.399.237.795.362 1.189l-2.875 3.994a1.444 1.444 0 00.941 2.268l4.858.79c.19.37.385.73.586 1.092l-2.043 4.481a1.442 1.442 0 001.363 2.043l4.93-.174c.256.32.515.635.779.947l-1.131 4.805c-.115.487.03.995.385 1.35.352.356.865.499 1.353.384l4.803-1.13c.312.265.628.521.947.775l-.172 4.933a1.443 1.443 0 002.041 1.364l4.48-2.043c.362.2.725.396 1.093.586l.79 4.857a1.443 1.443 0 002.27.942l3.992-2.877c.395.125.79.246 1.19.36l1.724 4.608c.175.468.58.815 1.07.91.491.1.996-.065 1.337-.431l3.363-3.606c.406.047.814.087 1.223.123l2.597 4.194a1.445 1.445 0 002.455 0l2.596-4.194c.409-.036.817-.076 1.223-.123l3.361 3.606a1.442 1.442 0 002.408-.479l1.723-4.607c.4-.115.795-.236 1.19-.361l3.994 2.877a1.442 1.442 0 002.267-.942l.793-4.857c.367-.19.728-.389 1.09-.586l4.482 2.043a1.44 1.44 0 002.041-1.364l-.171-4.933c.318-.255.634-.51.945-.775l4.803 1.13c.487.115.999-.028 1.351-.384.355-.355.5-.863.385-1.35L84.58 79.16c.263-.312.523-.626.777-.947l4.932.174c.497.02.972-.224 1.25-.64a1.44 1.44 0 00.113-1.403l-2.04-4.48c.199-.362.394-.724.583-1.092l4.86-.791c.494-.08.91-.41 1.101-.873a1.44 1.44 0 00-.162-1.395L93.12 63.72c.124-.394.246-.79.361-1.19l4.608-1.722a1.44 1.44 0 00.91-1.072c.1-.491-.065-.996-.432-1.336l-3.605-3.364c.044-.405.084-.815.119-1.222l4.195-2.596a1.443 1.443 0 00.002-2.455l-4.195-2.596a57.006 57.006 0 00-.12-1.223l3.604-3.36a1.44 1.44 0 00.432-1.339 1.44 1.44 0 00-.91-1.072l-4.608-1.723a53.66 53.66 0 00-.361-1.19l2.875-3.991a1.443 1.443 0 00-.94-2.27l-4.859-.791c-.189-.369-.385-.73-.584-1.09l2.043-4.482a1.44 1.44 0 00-.113-1.403 1.435 1.435 0 00-1.25-.64l-4.932.172a38.891 38.891 0 00-.779-.944l1.133-4.804a1.443 1.443 0 00-1.737-1.739l-4.802 1.133a41.51 41.51 0 00-.948-.78l.172-4.93a1.441 1.441 0 00-2.041-1.363l-4.48 2.042a52.094 52.094 0 00-1.092-.586l-.791-4.86a1.445 1.445 0 00-2.27-.939L63.73 6.867a43.821 43.821 0 00-1.187-.36l-1.725-4.609a1.445 1.445 0 00-2.406-.48l-3.363 3.61a43.27 43.27 0 00-1.221-.122L51.23.711a1.445 1.445 0 00-1.228-.684zM50 12.998a36.99 36.99 0 0136.99 36.99A36.99 36.99 0 0150 86.978a36.99 36.99 0 01-36.99-36.99A36.99 36.99 0 0150 12.998z"></path>
      <path id="c" d="M36.092 6.867l12.17 11.814a2.46 2.46 0 001.738.723 2.46 2.46 0 001.668-.654l12.24-11.883z"></path>
      <use href="#c" transform="rotate(72 50 50)"></use>
      <use href="#c" transform="rotate(144 50 50)"></use>
      <use href="#c" transform="rotate(216 50 50)"></use>
      <use href="#c" transform="rotate(288 50 50)"></use>
    </g>
  </g>
  </g>
</svg>
