<svg version="1.1" viewBox="0 0 300 300" xmlns="http://www.w3.org/2000/svg" xmlns:xlink="http://www.w3.org/1999/xlink">
  <defs>
    <clipPath id="cut-bottom">
      <rect x="0" y="0" width="300" height="150" />
    </clipPath>
    <path id="arm" d="m49.14 108.68a41.02 41.02 0 0 0-14.99 3.06c-14.2 5.88-25.57 20.62-25.57 38.26s11.38 32.38 25.57 38.26c11.69 4.85 26.22 3.97 37.98-3.4h20.6l19-19h-45.88a22.42 22.42 0 1 1 0-31.71h45.88l-19-19h-20.6a41.92 41.92 0 0 0-23-6.47z" />
  </defs>
  <path id="b" d="m8.5 150v100c0 23.5 18 41.5 41.5 41.5h200c23.5 0 41.5-18 41.5-41.5v-100h-283zm105.06 8.0391h21.479l15.201 73.342 15.199-73.342h21.461l-25.939 125.2h-21.48l-25.92-125.2zm-38.41 0.89844a36.68 36.68 0 0 1 38.41 35.783h-21.48c0-8.4-6.7992-15.201-15.199-15.201a15.2 15.2 0 0 0-10.74 25.92c2.76 2.76 5.0602 3.5609 10.74 4.4609 10.14 1.06 19.299 4.1202 25.939 10.74a36.54 36.54 0 0 1 10.74 25.939 36.68 36.68 0 0 1-73.34 0h21.479c0 8.38 6.8012 15.199 15.201 15.199a15.2 15.2 0 0 0 15.199-15.199 15.14 15.14 0 0 0-4.459-10.74c-2.76-2.74-6.6998-3.6994-10.76-4.4394-9.8-1.52-19.28-4.1198-25.92-10.76a36.54 36.54 0 0 1-10.74-25.92 36.68 36.68 0 0 1 34.93-35.783zm146.72 0a36.68 36.68 0 0 1 38.408 35.783h-21.5a15.2 15.2 0 0 0-15.199-15.201 15.2 15.2 0 0 0-15.199 15.201v51.859a15.2 15.2 0 0 0 30.398 0v-15.199h-15.199v-21.461l0.01953-0.01953h36.68v36.699a36.68 36.68 0 0 1-73.34 0v-51.879a36.68 36.68 0 0 1 34.932-35.783z" />
  <g clip-path="url(#cut-bottom)">
    <g>
      <animateTransform attributeName="transform" type="rotate" from="0 150 150" to="45 150 150" dur="3s" repeatCount="indefinite" />
      <g id="arms">
        <use xlink:href="#arm" transform="rotate(-22.5 150 150)" />
        <use xlink:href="#arm" transform="rotate(22.5 150 150)" />
      </g>
      <use xlink:href="#arms" transform="rotate(90 150 150)" />
      <use xlink:href="#arm" transform="rotate(157.5 150 150)" />
    </g>
  </g>
</svg>
