<svg viewBox="-0.6 0 92 118.66" xmlns="http://www.w3.org/2000/svg">
  <g fill="#eee">
    <path d="M23.8 71.3l10.21.2 7.9-10.33-5.45-13.52-8.48-.44c-4.12 7.46-5.33 15.53-4.17 24.08z" fill-opacity=".66"/>
    <path d="M30.77 70.06l8.32-10.4 13.54.14 7.04 10.5-8.23 10.56-11.93.03z" fill-opacity=".3"/>
    <path d="M34.66 86.97l4.24-8.9 12.84.18 4.19 8.71-5.4 8.07-10.67.01z" fill-opacity=".73"/>
    <path d="M33.44 48.67l5.98-8.01 11.56-.03 5.6 8.16-4.46 13.85-13.48-.06z" fill-opacity=".39"/>
    <path d="M33.92 68.36l7.6 11.03-3.63 8.8-9.14.5a60.32 60.32 0 01-4.94-17.4z" fill-opacity=".21"/>
    <path d="M49.4 61.23l4.95-13.16 8.21-.78c4.6 7.85 5.12 15.95 4.23 24.13l-9.97-.1z" fill-opacity=".23"/>
    <path d="M49.05 79.4l7.88-10.63 9.86 2.65c-.8 6.53-2.39 12.34-4.95 17.28l-8.64-1.1z" fill-opacity=".59"/>
  </g>
  <path stroke="#eee" stroke-width="0.6" d="M45.29-.01c-1.88.05-3.46 1.65-4.8 3.46-1.32 1.78-2.41 3.8-3.24 4.87a.77.77 0 01-.41.03c-.2-.02-.45-.07-.73-.04-.25.03-.47.18-.64.38s-.3.44-.43.73a11.77 11.77 0 00-.64 4.25c.03.65.1 1.16.39 1.49.26.29.52.38.62.44l.07.06a7.83 7.83 0 00.82 2.63c.38.9.81 1.86 1.03 2.69a73.64 73.64 0 011.11 7.05h.04c-3.85 2.06-7.7 5.67-10.98 10.18a49.53 49.53 0 00-4.52 7.53 11.09 11.09 0 00-6.6-2.96c-2.04-.11-4.15.87-6.09 2.3a28.28 28.28 0 00-5.1 5.02c-1.83 2.28-3.9 5.25-4.77 8.78-.88 3.54-.56 7.64 2.37 12.1a6.27 6.27 0 001.54 1.77c.47.32.97.4 1.38.22.4-.18.71-.56.97-1.05.26-.48.48-1.08.67-1.74.39-1.33.68-2.91 1-4.28.3-1.36.66-2.53 1-2.9.86-.94 1.54-1.45 2.17-1.94a8.52 8.52 0 001.86-1.82c.65-.9.96-2.21 1.33-3.41.38-1.2.81-2.25 1.53-2.66a6.18 6.18 0 012.77-.61c.57-.01.98.02 1.26.04a40.23 40.23 0 00-1.85 11.78c0 9 2.73 19.57 7.07 28.39l.43.83c-.05.05-1.44 1.49-2.87 3.04a38.15 38.15 0 00-3.54 4.2 34.38 34.38 0 00-2.27 5.03c-.34.93-.65 1.82-.86 2.55a6.32 6.32 0 00-.35 1.62c.02.64.4 1.5.96 2.48a23.8 23.8 0 002.13 3.08c.8.99 1.64 1.87 2.4 2.44.38.28.74.49 1.08.58.34.1.71.07.97-.17.81-.76.97-2.06 1.1-3.51.14-1.45.23-3.08.76-4.53.53-1.46 1.9-3.75 3.12-5.66a93.19 93.19 0 012.21-3.28c3.4 4.51 7.28 7.84 11.4 9.15.46 1.05.94 2.13 1.43 2.96.26.43.52.8.79 1.06.27.27.57.47.91.47.35 0 .65-.2.92-.47.27-.27.53-.63.79-1.06.5-.83.97-1.9 1.42-2.96l.7-.24.22-.1a15.23 15.23 0 001.26-.55l.15-.07.7-.38.1-.05c.19-.12.39-.23.58-.36l.2-.12.5-.33.18-.13a22.1 22.1 0 001.36-1.03l.1-.07a25.77 25.77 0 001.3-1.15l.06-.05a31 31 0 001.33-1.34l.08-.09.6-.65.05-.06a39.4 39.4 0 001.92-2.37l.02-.01c.15.22 1.07 1.52 2.2 3.28 1.23 1.9 2.6 4.2 3.13 5.66.53 1.45.62 3.08.76 4.53.13 1.45.29 2.75 1.1 3.5.26.25.62.28.97.18.34-.1.7-.3 1.08-.58a14.7 14.7 0 002.4-2.44c.8-1 1.56-2.1 2.12-3.08.57-.99.95-1.84.96-2.48.01-.36-.13-.9-.34-1.62-.22-.73-.52-1.62-.87-2.55a34.36 34.36 0 00-2.26-5.03c-.53-.88-2.1-2.63-3.55-4.2a184.5 184.5 0 00-2.78-2.95l-.25.24.6-1.16c4.34-8.83 7.07-19.39 7.07-28.4l-.01-.83v-.2a35.17 35.17 0 00-.14-2.25l-.04-.34a38.43 38.43 0 00-.14-1.2l-.05-.39-.07-.48-.05-.3-.09-.52-.04-.26-.1-.54-.05-.24-.12-.57-.02-.08c-.26-1.2-.58-2.4-.94-3.57.29-.02.7-.05 1.27-.04.9.02 2 .16 2.77.6.72.42 1.15 1.47 1.52 2.67.37 1.2.68 2.51 1.34 3.4a8.52 8.52 0 001.86 1.83c.63.5 1.3 1 2.17 1.94.33.37.7 1.54 1 2.9.31 1.37.61 2.95 1 4.28.19.66.4 1.26.67 1.74.25.49.56.87.97 1.05.41.18.9.1 1.38-.23.47-.32.97-.89 1.54-1.75 2.93-4.47 3.25-8.57 2.37-12.1-.88-3.54-2.94-6.5-4.77-8.8a28.29 28.29 0 00-5.1-5.02c-1.95-1.42-4.05-2.4-6.1-2.29-3.39.19-5.88 2.3-6.6 2.96-.32-.66-.65-1.32-1-1.96l-.04-.08-.47-.85-.08-.13a49.78 49.78 0 00-1.08-1.8l-.08-.13a49.17 49.17 0 00-1.02-1.54l-.18-.26a47.59 47.59 0 00-1.14-1.56l-.16-.21a46.07 46.07 0 00-1.03-1.28l-.2-.24-.6-.7-.6-.68-.19-.2A39.79 39.79 0 0058.64 33l-.2-.2-.62-.59-.01-.01-.02-.02-.61-.55-.21-.19a32.63 32.63 0 00-1.14-.94l-.18-.15-.66-.5-.66-.46-.2-.14a25.24 25.24 0 00-1.14-.72l-.23-.14c-.22-.13-.43-.25-.65-.36h.04s.53-4.78 1.11-7.05c.21-.83.64-1.79 1.03-2.69a7.83 7.83 0 00.82-2.63l.07-.06c.1-.06.36-.16.62-.44.29-.33.35-.84.39-1.5.03-.64-.01-1.41-.12-2.17a8.66 8.66 0 00-.52-2.07 2.75 2.75 0 00-.43-.73 1 1 0 00-.64-.38c-.28-.03-.53.02-.73.04a.76.76 0 01-.41-.03c-.83-1.08-1.93-3.09-3.25-4.87-1.34-1.8-2.91-3.41-4.79-3.47h-.01zm0 .53c1.57.05 3.07 1.48 4.37 3.25 1.31 1.76 2.41 3.8 3.3 4.94l.04.04.05.03c.26.14.53.13.76.1.23-.03.43-.06.6-.04.1 0 .2.06.3.2.12.13.24.33.35.59.21.5.38 1.21.49 1.94.1.72.14 1.47.1 2.07a2.8 2.8 0 01-.25 1.17c-.18.2-.3.23-.49.33a.71.71 0 00-.26.27c-.07.12-.1.27-.11.45-.03.5-.35 1.33-.73 2.22s-.83 1.87-1.06 2.77a68.13 68.13 0 00-1.11 6.93 19.3 19.3 0 00-.8-.38h-.01l-.74-.31-.11-.05c-.5-.19-1-.35-1.5-.49l-.13-.04-.64-.15-.11-.02a12.53 12.53 0 00-1.18-.18l-.09-.01-.41-.03-.14-.01-.49-.01c-2.04 0-4.19.6-6.34 1.68-.06-.5-.55-4.7-1.11-6.93-.23-.9-.67-1.87-1.06-2.77-.38-.89-.7-1.71-.73-2.22 0-.18-.04-.33-.11-.46a.7.7 0 00-.27-.26c-.18-.1-.3-.13-.49-.34a2.8 2.8 0 01-.25-1.16 11.28 11.28 0 01.6-4.01c.1-.26.22-.46.34-.6.12-.13.21-.18.3-.2.17-.01.38.02.6.05.23.03.5.04.77-.1l.04-.03.04-.04c.9-1.14 2-3.18 3.3-4.94C42.22 2 43.72.57 45.3.52zm0 26.1c5.56 0 12.17 4.77 17.37 11.9 5.2 7.13 8.98 16.59 8.98 25.86 0 8.9-2.71 19.4-7.02 28.16-4.3 8.75-10.21 15.72-16.48 17.64l-.12.03-.04.12a26.23 26.23 0 01-1.44 2.98c-.24.4-.48.74-.7.96-.17.17-.32.26-.44.3a.39.39 0 01-.1.01c-.14 0-.33-.09-.55-.3a5.03 5.03 0 01-.7-.97c-.49-.8-.98-1.9-1.44-2.98l-.05-.12-.12-.03c-6.26-1.92-12.17-8.9-16.47-17.64s-7.02-19.26-7.02-28.16c0-9.27 3.78-18.73 8.98-25.86 5.2-7.13 11.81-11.9 17.36-11.9zm-.26 1.19v2.62h.53V27.8zm-5.52 1.4l-.48.22 1.23 2.83.48-.21-1.23-2.83zm11.56 0l-1.23 2.84.49.21 1.23-2.83-.49-.21zm-5.78 2.53c-4.74 0-10.25 4.39-14.61 10.6-4.36 6.2-7.57 14.25-7.57 21.74a60.38 60.38 0 008.04 29.87 38.5 38.5 0 007.22 9.2c2.45 2.19 4.85 3.44 6.92 3.44 2.08 0 4.48-1.25 6.93-3.44a38.48 38.48 0 007.22-9.2 60.37 60.37 0 008.04-29.87c0-7.49-3.21-15.54-7.58-21.75-4.36-6.2-9.86-10.59-14.6-10.59zm0 .53c4.42 0 9.88 4.24 14.18 10.36 4.31 6.13 7.48 14.11 7.48 21.45 0 11.43-3.5 21.95-7.97 29.6a38.01 38.01 0 01-7.11 9.07c-2.4 2.15-4.71 3.3-6.58 3.3-1.86 0-4.17-1.15-6.57-3.3a38.01 38.01 0 01-7.11-9.07 59.88 59.88 0 01-7.97-29.6c0-7.34 3.17-15.32 7.47-21.45 4.31-6.12 9.77-10.36 14.18-10.36zm-11.3.55l-.4.37 2.09 2.17.38-.36zm22.61 0L54.53 35l.38.36 2.08-2.17zm-20 3.2l-.46.27 4 5.96-4.87 6.6-7-2.17-.13.51 7.04 2.18 4.21 11.69-6.7 8.75L23.97 71l.08.52 8.69-1.18 6.89 9.1-3.22 6.83-7.68 2.3.14.52 7.6-2.29 4.23 6.4-4.62 7.45.47.25 4.61-7.46h8.28l4.2 8 .46-.26-4.2-7.99 2.81-4.24 1.42-2.15 7.61 2.29.14-.51-7.68-2.3-3.22-6.84 6.9-9.1 8.68 1.18.07-.52-8.73-1.19-6.7-8.75 4.22-11.7 7.15-1.83-.13-.51-7.12 1.82-4.87-6.6 3.71-6.12-.45-.27L49.98 42H40.6l-4.01-5.98zm-7.56 1.88l-.33.41 2.36 1.9.34-.42-2.37-1.89zm32.5 0l-2.36 1.9.33.4 2.37-1.89-.34-.41zM40.6 42.53H50l4.92 6.66-4.2 11.65H39.88l-4.2-11.65zm-14.78.46l-.3.44 2.28 1.51.29-.44zm38.97 0L62.5 44.5l.3.44 2.26-1.5zM16 43.3l.35.01c3.46.2 5.98 2.53 6.39 2.93a48.32 48.32 0 00-2.31 5.85c-.26-.03-.74-.07-1.44-.06-.95.02-2.12.16-3.03.68-.95.55-1.38 1.74-1.76 2.96s-.7 2.5-1.26 3.26a7.92 7.92 0 01-1.75 1.71c-.63.49-1.35 1.03-2.24 2-.54.6-.82 1.77-1.13 3.15-.31 1.38-.61 2.95-.99 4.24-.18.64-.4 1.22-.62 1.65-.23.43-.49.7-.72.8-.24.1-.49.1-.87-.17a5.92 5.92 0 01-1.4-1.61C.38 66.34.08 62.43.93 59c.85-3.4 2.86-6.32 4.67-8.58a27.83 27.83 0 015-4.93c1.78-1.3 3.65-2.18 5.4-2.2zm58.57 0c1.76.02 3.63.9 5.4 2.2A27.83 27.83 0 0185 50.43c1.8 2.26 3.82 5.17 4.67 8.58.85 3.42.55 7.33-2.3 11.69a5.92 5.92 0 01-1.4 1.61c-.38.26-.63.28-.87.18-.23-.1-.49-.38-.72-.81-.23-.44-.44-1-.62-1.65-.38-1.29-.67-2.86-.99-4.24-.3-1.38-.6-2.55-1.13-3.14-.89-.98-1.6-1.52-2.24-2s-1.16-.92-1.75-1.72c-.56-.76-.88-2.04-1.26-3.26-.38-1.22-.8-2.41-1.76-2.96a6.53 6.53 0 00-3.03-.68c-.7-.01-1.17.03-1.44.06-.13-.43-.28-.86-.43-1.29l-.08-.22-.52-1.4-.05-.1-.55-1.35-.06-.14-.61-1.35c.4-.4 2.92-2.74 6.38-2.93h.35zm-51.14 4.4l-.27.46 2.36 1.42.27-.46zm43.71 0l-2.36 1.42.27.46 2.36-1.42zm-46.21 5.37l-.18.5 2.83 1.04.18-.5zm48.71 0l-2.83 1.04.18.5 2.84-1.04-.19-.5zm-49.8 5.56l-.08.53 2.83.47.09-.52-2.84-.48zm50.89 0l-2.83.48.08.52 2.84-.47-.1-.53zm-30.92 2.74h10.95l6.64 8.69-6.88 9.09H40.06l-6.88-9.09 6.64-8.7zm-17.1 3.22l-3.12.19.03.52 3.12-.19zm45.15 0l-.03.52 3.12.2.03-.53-3.12-.2zm-45.45 5.76l-2.36.28.06.53 2.36-.28-.06-.53zm45.75 0l-.07.53 2.37.28.06-.53-2.36-.28zM23.62 76.6l-2.74.66.12.52 2.74-.66-.12-.52zm43.35 0l-.12.52 2.73.66.13-.52zm-26.88 3.09h10.4l3.21 6.8-4.25 6.43h-8.31l-4.25-6.44 3.2-6.8zm-14.42 3.44l-2.74 1.04.18.5 2.74-1.04zm39.26 0l-.2.5 2.75 1.04.18-.5-2.73-1.04zm-37.3 5.59l-2.46 1.23.24.47 2.46-1.23zm35.33 0l-.23.47 2.45 1.23.24-.47-2.46-1.23zm-32.78 4.63l-2.46 1.23.24.47 2.46-1.23zm30.23 0l-.23.47 2.45 1.23.24-.47-2.46-1.23zm-34.23.77a53.97 53.97 0 004.25 6.91c-.02.04-1.1 1.54-2.32 3.44-1.23 1.92-2.6 4.21-3.17 5.77-.57 1.55-.66 3.23-.8 4.66-.12 1.44-.32 2.6-.93 3.17-.1.1-.22.12-.46.05s-.56-.23-.9-.5c-.7-.52-1.53-1.38-2.32-2.35a23.34 23.34 0 01-2.08-3 6.2 6.2 0 01-.88-2.23c0-.17.1-.75.32-1.46.21-.7.51-1.59.85-2.5a34.4 34.4 0 012.22-4.95c.45-.75 2.04-2.55 3.49-4.12 1.4-1.53 2.66-2.82 2.73-2.9zm38.23 0c.07.07 1.33 1.36 2.74 2.89a40.75 40.75 0 013.48 4.12 34.4 34.4 0 012.22 4.94c.34.92.64 1.8.86 2.51.2.71.32 1.29.32 1.46a6.2 6.2 0 01-.9 2.23c-.54.96-1.28 2.04-2.07 3-.78.97-1.61 1.83-2.31 2.35a3 3 0 01-.9.5c-.24.07-.36.05-.47-.05-.6-.57-.8-1.73-.93-3.17-.14-1.43-.23-3.1-.8-4.66-.56-1.56-1.93-3.85-3.17-5.77-1.22-1.9-2.3-3.4-2.32-3.44l.55-.76.08-.12.47-.68.08-.12.48-.73.02-.04.01-.02c.9-1.4 1.76-2.9 2.56-4.44zm-31.9 3.5l-2.26 1.41.28.45 2.27-1.42zm25.56 0l-.28.44 2.27 1.42.28-.45zm-22.74 3.8l-1.99 1.6.33.4 1.99-1.6zm19.93 0l-.33.4 1.98 1.6.34-.4zm-16.2 3.53l-1.7 2.17.42.33 1.7-2.17zm12.47 0l-.42.33 1.7 2.17.42-.33zm-8.64 2.18l-.66 2.64.51.13.66-2.64-.5-.13zm4.81 0l-.51.13.66 2.64.51-.13-.66-2.64zm-2.67.57v5.68h.53v-5.68z"/>
  <path d="M52 10.31a2.04 2.04 0 00-2.04 2.05 2.04 2.04 0 002.05 2.04 2.04 2.04 0 002.04-2.04A2.04 2.04 0 0052 10.3zm0 .98a1.07 1.07 0 011.07 1.07 1.07 1.07 0 01-1.06 1.06 1.07 1.07 0 01-1.07-1.06A1.07 1.07 0 0152 11.29z" fill="#eee"/>
  <path d="M38.58 10.31a2.04 2.04 0 00-2.04 2.05 2.04 2.04 0 002.04 2.04 2.04 2.04 0 002.05-2.04 2.04 2.04 0 00-2.05-2.05zm0 .98a1.07 1.07 0 011.07 1.07 1.07 1.07 0 01-1.07 1.06 1.07 1.07 0 01-1.06-1.06 1.07 1.07 0 011.06-1.07z" fill="#f22"/>
  <g>
    <path d="M44.27 2.18a.31.31 0 110 .62.31.31 0 010-.62z" fill="#eee"/>
    <path d="M46.32 2.18a.31.31 0 110 .62.31.31 0 010-.62z" fill="#f22"/>
  </g>
</svg>
