<?xml-stylesheet href="/generated/mermaid/styles/mermaid.css" type="text/css"?>
<svg xmlns="http://www.w3.org/2000/svg" id="mermaid-svg" aria-roledescription="flowchart-elk" class="flowchart" style="font-family:monospace;font-size:16px;fill:#eee;background-color:#111" viewBox="4 4 1589 1027.8"><marker id="mermaid-svg_flowchart-elk-pointEnd" class="marker flowchart-elk" markerHeight="8" markerUnits="userSpaceOnUse" markerWidth="8" orient="auto" refX="5" refY="5" viewBox="0 0 10 10"><path d="m0 0 10 5-10 5z" class="arrowMarkerPath" style="stroke-width:1;stroke-dasharray:1,0"/></marker><marker id="mermaid-svg_flowchart-elk-pointStart" class="marker flowchart-elk" markerHeight="8" markerUnits="userSpaceOnUse" markerWidth="8" orient="auto" refX="4.5" refY="5" viewBox="0 0 10 10"><path d="m0 5 10 5V0z" class="arrowMarkerPath" style="stroke-width:1;stroke-dasharray:1,0"/></marker><marker id="mermaid-svg_flowchart-elk-pointEnd-margin" class="marker flowchart-elk" markerHeight="14" markerUnits="userSpaceOnUse" markerWidth="10.5" orient="auto" refX="11.5" refY="7" viewBox="0 0 11.5 14"><path d="m0 0 11.5 7L0 14z" class="arrowMarkerPath" style="stroke-width:0;stroke-dasharray:1,0"/></marker><marker id="mermaid-svg_flowchart-elk-pointStart-margin" class="marker flowchart-elk" markerHeight="14" markerUnits="userSpaceOnUse" markerWidth="11.5" orient="auto" refX="1" refY="7" viewBox="0 0 11.5 14"><path d="m0 7 11.5 7V0z" class="arrowMarkerPath" style="stroke-width:0;stroke-dasharray:1,0"/></marker><marker id="mermaid-svg_flowchart-elk-circleEnd" class="marker flowchart-elk" markerHeight="11" markerUnits="userSpaceOnUse" markerWidth="11" orient="auto" refX="11" refY="5" viewBox="0 0 10 10"><circle cx="5" cy="5" r="5" class="arrowMarkerPath" style="stroke-width:1;stroke-dasharray:1,0"/></marker><marker id="mermaid-svg_flowchart-elk-circleStart" class="marker flowchart-elk" markerHeight="11" markerUnits="userSpaceOnUse" markerWidth="11" orient="auto" refX="-1" refY="5" viewBox="0 0 10 10"><circle cx="5" cy="5" r="5" class="arrowMarkerPath" style="stroke-width:1;stroke-dasharray:1,0"/></marker><marker id="mermaid-svg_flowchart-elk-circleEnd-margin" class="marker flowchart-elk" markerHeight="14" markerUnits="userSpaceOnUse" markerWidth="14" orient="auto" refX="12.3" refY="5" viewBox="0 0 10 10"><circle cx="5" cy="5" r="5" class="arrowMarkerPath" style="stroke-width:0;stroke-dasharray:1,0"/></marker><marker id="mermaid-svg_flowchart-elk-circleStart-margin" class="marker flowchart-elk" markerHeight="14" markerUnits="userSpaceOnUse" markerWidth="14" orient="auto" refX="-2" refY="5" viewBox="0 0 10 10"><circle cx="5" cy="5" r="5" class="arrowMarkerPath" style="stroke-width:0;stroke-dasharray:1,0"/></marker><marker id="mermaid-svg_flowchart-elk-crossEnd" class="marker cross flowchart-elk" markerHeight="11" markerUnits="userSpaceOnUse" markerWidth="11" orient="auto" refX="12" refY="5.2" viewBox="0 0 11 11"><path d="m1 1 9 9m0-9-9 9" class="arrowMarkerPath" style="stroke-width:2;stroke-dasharray:1,0"/></marker><marker id="mermaid-svg_flowchart-elk-crossStart" class="marker cross flowchart-elk" markerHeight="11" markerUnits="userSpaceOnUse" markerWidth="11" orient="auto" refX="-1" refY="5.2" viewBox="0 0 11 11"><path d="m1 1 9 9m0-9-9 9" class="arrowMarkerPath" style="stroke-width:2;stroke-dasharray:1,0"/></marker><marker id="mermaid-svg_flowchart-elk-crossEnd-margin" class="marker cross flowchart-elk" markerHeight="12" markerUnits="userSpaceOnUse" markerWidth="12" orient="auto" refX="17.7" refY="7.5" viewBox="0 0 15 15"><path d="m1 1 13 13M1 14 14 1" class="arrowMarkerPath" style="stroke-width:2.5"/></marker><marker id="mermaid-svg_flowchart-elk-crossStart-margin" class="marker cross flowchart-elk" markerHeight="12" markerUnits="userSpaceOnUse" markerWidth="12" orient="auto" refX="-3.5" refY="7.5" viewBox="0 0 15 15"><path d="m1 1 13 13M1 14 14 1" class="arrowMarkerPath" style="stroke-width:2.5;stroke-dasharray:1,0"/></marker><defs><filter id="mermaid-svg-drop-shadow" width="130%" height="130%"><feDropShadow dx="4" dy="4" flood-color="#000" flood-opacity=".1" stdDeviation="0"/></filter></defs><defs><filter id="mermaid-svg-drop-shadow-small" width="150%" height="150%"><feDropShadow dx="2" dy="2" flood-color="#000" flood-opacity=".1" stdDeviation="0"/></filter></defs><linearGradient id="mermaid-svg-gradient" x1="0%" x2="100%" y1="0%" y2="0%" gradientUnits="objectBoundingBox"><stop offset="0%" stop-color="#57d"/><stop offset="100%" stop-color="#eb6f92"/></linearGradient><g class="nodes"><g id="mermaid-svg-flowchart-a-0" class="node default" data-look="classic" transform="translate(45.6 972.3)"><circle r="31.5" class="basic label-container"/><g class="label" transform="translate(-24 -12)"><rect/><foreignObject width="48" height="24"><div xmlns="http://www.w3.org/1999/xhtml" style="display:table-cell;white-space:nowrap;line-height:1.5;text-align:center"><span class="nodeLabel"><p>start</p></span></div></foreignObject></g></g><g id="mermaid-svg-flowchart-e-4" class="node default" data-look="classic"><path d="M320.6 12h69.6v54h-69.6z" class="basic label-container"/><g class="label" transform="translate(350.6 27)"><rect/><foreignObject width="9.6" height="24"><div xmlns="http://www.w3.org/1999/xhtml" style="display:table-cell;white-space:nowrap;line-height:1.5;text-align:center"><span class="nodeLabel"><p>e</p></span></div></foreignObject></g></g><g id="mermaid-svg-flowchart-i1-6" class="node default" data-look="classic"><path d="M898.2 515.1h79.2v54h-79.2z" class="basic label-container"/><g class="label" transform="translate(928.2 530.1)"><rect/><foreignObject width="19.2" height="24"><div xmlns="http://www.w3.org/1999/xhtml" style="display:table-cell;white-space:nowrap;line-height:1.5;text-align:center"><span class="nodeLabel"><p>i1</p></span></div></foreignObject></g></g><g id="mermaid-svg-flowchart-l-8" class="node default" data-look="classic"><path d="M655.5 969.8H725v54h-69.6z" class="basic label-container"/><g class="label" transform="translate(685.4 984.8)"><rect/><foreignObject width="9.6" height="24"><div xmlns="http://www.w3.org/1999/xhtml" style="display:table-cell;white-space:nowrap;line-height:1.5;text-align:center"><span class="nodeLabel"><p>l</p></span></div></foreignObject></g></g><g id="mermaid-svg-flowchart-id-10" class="node default" data-look="classic"><g class="basic label-container" transform="translate(1526.8 774.6)"><circle r="58.2" class="outer-circle"/><circle r="53.2" class="inner-circle"/></g><g class="label" transform="translate(1483.6 762.6)"><rect/><foreignObject width="86.4" height="24"><div xmlns="http://www.w3.org/1999/xhtml" style="display:table-cell;white-space:nowrap;line-height:1.5;text-align:center"><span class="nodeLabel"><p>identifier</p></span></div></foreignObject></g></g><g id="mermaid-svg-flowchart-zint-12" class="node default" data-look="classic"><g class="basic label-container" transform="translate(350.8 149.6)"><circle r="48.6" class="outer-circle"/><circle r="43.6" class="inner-circle"/></g><g class="label" transform="translate(317.2 137.6)"><rect/><foreignObject width="67.2" height="24"><div xmlns="http://www.w3.org/1999/xhtml" style="display:table-cell;white-space:nowrap;line-height:1.5;text-align:center"><span class="nodeLabel"><p>integer</p></span></div></foreignObject></g></g><g id="mermaid-svg-flowchart-int-14" class="node default" data-look="classic"><g class="basic label-container" transform="translate(350.8 326.8)"><circle r="48.6" class="outer-circle"/><circle r="43.6" class="inner-circle"/></g><g class="label" transform="translate(317.2 314.8)"><rect/><foreignObject width="67.2" height="24"><div xmlns="http://www.w3.org/1999/xhtml" style="display:table-cell;white-space:nowrap;line-height:1.5;text-align:center"><span class="nodeLabel"><p>integer</p></span></div></foreignObject></g></g><g id="mermaid-svg-flowchart-assign-16" class="node default" data-look="classic"><g class="basic label-container" transform="translate(322 430.2)"><circle r="19.8" class="outer-circle"/><circle r="14.8" class="inner-circle"/></g><g class="label" transform="translate(317.2 418.2)"><rect/><foreignObject width="9.6" height="24"><div xmlns="http://www.w3.org/1999/xhtml" style="display:table-cell;white-space:nowrap;line-height:1.5;text-align:center"><span class="nodeLabel"><p>=</p></span></div></foreignObject></g></g><g id="mermaid-svg-flowchart-add-18" class="node default" data-look="classic"><g class="basic label-container" transform="translate(322 504.8)"><circle r="19.8" class="outer-circle"/><circle r="14.8" class="inner-circle"/></g><g class="label" transform="translate(317.2 492.8)"><rect/><foreignObject width="9.6" height="24"><div xmlns="http://www.w3.org/1999/xhtml" style="display:table-cell;white-space:nowrap;line-height:1.5;text-align:center"><span class="nodeLabel"><p>+</p></span></div></foreignObject></g></g><g id="mermaid-svg-flowchart-el-24" class="node default" data-look="classic"><path d="M479 774h79.2v54H479z" class="basic label-container"/><g class="label" transform="translate(509 789)"><rect/><foreignObject width="19.2" height="24"><div xmlns="http://www.w3.org/1999/xhtml" style="display:table-cell;white-space:nowrap;line-height:1.5;text-align:center"><span class="nodeLabel"><p>el</p></span></div></foreignObject></g></g><g id="mermaid-svg-flowchart-els-28" class="node default" data-look="classic"><path d="M643.3 738.5H732v54h-88.8z" class="basic label-container"/><g class="label" transform="translate(673.2 753.5)"><rect/><foreignObject width="28.8" height="24"><div xmlns="http://www.w3.org/1999/xhtml" style="display:table-cell;white-space:nowrap;line-height:1.5;text-align:center"><span class="nodeLabel"><p>els</p></span></div></foreignObject></g></g><g id="mermaid-svg-flowchart-else-32" class="node default" data-look="classic"><g class="basic label-container" transform="translate(937.8 638.3)"><circle r="34.2" class="outer-circle"/><circle r="29.2" class="inner-circle"/></g><g class="label" transform="translate(918.6 626.3)"><rect/><foreignObject width="38.4" height="24"><div xmlns="http://www.w3.org/1999/xhtml" style="display:table-cell;white-space:nowrap;line-height:1.5;text-align:center"><span class="nodeLabel"><p>else</p></span></div></foreignObject></g></g><g id="mermaid-svg-flowchart-e4-34" class="node default" data-look="classic"><path d="M898.2 707.5h79.2v54h-79.2z" class="basic label-container"/><g class="label" transform="translate(928.2 722.5)"><rect/><foreignObject width="19.2" height="24"><div xmlns="http://www.w3.org/1999/xhtml" style="display:table-cell;white-space:nowrap;line-height:1.5;text-align:center"><span class="nodeLabel"><p>e4</p></span></div></foreignObject></g></g><g id="mermaid-svg-flowchart-elif-38" class="node default" data-look="classic"><g class="basic label-container" transform="translate(1224.7 385.2)"><circle r="34.2" class="outer-circle"/><circle r="29.2" class="inner-circle"/></g><g class="label" transform="translate(1205.5 373.2)"><rect/><foreignObject width="38.4" height="24"><div xmlns="http://www.w3.org/1999/xhtml" style="display:table-cell;white-space:nowrap;line-height:1.5;text-align:center"><span class="nodeLabel"><p>elif</p></span></div></foreignObject></g></g><g id="mermaid-svg-flowchart-if-46" class="node default" data-look="classic"><g class="basic label-container" transform="translate(1224.7 479)"><circle r="24.6" class="outer-circle"/><circle r="19.6" class="inner-circle"/></g><g class="label" transform="translate(1215 467)"><rect/><foreignObject width="19.2" height="24"><div xmlns="http://www.w3.org/1999/xhtml" style="display:table-cell;white-space:nowrap;line-height:1.5;text-align:center"><span class="nodeLabel"><p>if</p></span></div></foreignObject></g></g><g id="mermaid-svg-flowchart-le-52" class="node default" data-look="classic"><path d="M898.2 934.3h79.2v54h-79.2z" class="basic label-container"/><g class="label" transform="translate(928.2 949.3)"><rect/><foreignObject width="19.2" height="24"><div xmlns="http://www.w3.org/1999/xhtml" style="display:table-cell;white-space:nowrap;line-height:1.5;text-align:center"><span class="nodeLabel"><p>le</p></span></div></foreignObject></g></g><g id="mermaid-svg-flowchart-let-56" class="node default" data-look="classic"><g class="basic label-container" transform="translate(1224.7 893.4)"><circle r="29.4" class="outer-circle"/><circle r="24.4" class="inner-circle"/></g><g class="label" transform="translate(1210.3 881.4)"><rect/><foreignObject width="28.8" height="24"><div xmlns="http://www.w3.org/1999/xhtml" style="display:table-cell;white-space:nowrap;line-height:1.5;text-align:center"><span class="nodeLabel"><p>let</p></span></div></foreignObject></g></g></g><g class="edges edgePaths"><path id="mermaid-svg-L_a_a_0_0" marker-end="url(#mermaid-svg_flowchart-elk-pointEnd)" d="M35.1 940.8v-2c0-2.1 0-6.3.4-8.9.3-2.5 1-3.5 1.9-4.3s1.8-1.5 4-2c2.4-.3 6-.3 8.3 0 2.3.5 3.3 1.2 4.1 2q1.4 1 2 3.7c.3 1.9.3 4.7.3 6.1v1.4" class="edge-thickness-normal edge-pattern-solid edge-thickness-normal edge-pattern-solid flowchart-link" data-edge="true" data-et="edge" data-id="L_a_a_0_0" data-look="classic" data-points="W3sieCI6MzUuMDk4OTU4MzMzMzMzMzMsInkiOjk0MC44Mjk4NjExMTExMTExfSx7IngiOjM1LjA5ODk1ODMzMzMzMzMzLCJ5Ijo5MjMuMzI5ODYxMTExMTExMX0seyJ4Ijo1Ni4xMDQxNjY2NjY2NjY2NjQsInkiOjkyMy4zMjk4NjExMTExMTExfSx7IngiOjU2LjEwNDE2NjY2NjY2NjY2NCwieSI6OTQwLjgyOTg2MTExMTExMTF9XQ=="/><path id="mermaid-svg-L_a_e_0_0" marker-end="url(#mermaid-svg_flowchart-elk-pointEnd)" d="M77.1 947.8h2.4c2.5 0 7.3 0 10.2-.3 3-.4 3.9-1.1 4.7-2s1.6-1.7 2-152 .3-449.9.7-600.2c.3-150.2 1-151.2 1.9-152s1.8-1.6 38-2 108-.3 143.8-.3h35.8" class="edge-thickness-normal edge-pattern-solid edge-thickness-normal edge-pattern-solid flowchart-link" data-edge="true" data-et="edge" data-id="L_a_e_0_0" data-look="classic" data-points="W3sieCI6NzcuMTA5Mzc1LCJ5Ijo5NDcuODMxNTk3MjIyMjIyMn0seyJ4Ijo5Ni43MDMxMjUsInkiOjk0Ny44MzE1OTcyMjIyMjIyfSx7IngiOjk2LjcwMzEyNSwieSI6Mzl9LHsieCI6MzIwLjYxNDU4MzMzMzMzMzMsInkiOjM5fV0="/><path id="mermaid-svg-L_a_i1_0_0" marker-end="url(#mermaid-svg_flowchart-elk-pointEnd)" d="M77.1 982.8h17c17 0 51 0 68.6-.3 17.4-.4 18.4-1.1 19.2-2s1.6-1.7 2-74 .3-215.8.7-288c.3-72.3 1-73.3 1.9-74 .8-1 1.8-1.7 11.2-2q14.2-.5 54.4-.4h642.1" class="edge-thickness-normal edge-pattern-solid edge-thickness-normal edge-pattern-solid flowchart-link" data-edge="true" data-et="edge" data-id="L_a_i1_0_0" data-look="classic" data-points="W3sieCI6NzcuMTA5Mzc1LCJ5Ijo5ODIuODQwMjc3Nzc3Nzc3N30seyJ4IjoxODQuMjAzMTI1LCJ5Ijo5ODIuODQwMjc3Nzc3Nzc3N30seyJ4IjoxODQuMjAzMTI1LCJ5Ijo1NDIuMTI1fSx7IngiOjI0My4yMTA5Mzc1LCJ5Ijo1NDIuMTI1fSx7IngiOjM1MC44MjAzMTI1LCJ5Ijo1NDIuMTI1fSx7IngiOjQzOS4yMjY1NjI1LCJ5Ijo1NDIuMTI1fSx7IngiOjU5OC4wMzkwNjI1LCJ5Ijo1NDIuMTI1fSx7IngiOjY4NS44NTE1NjI1LCJ5Ijo1NDIuMTI1fSx7IngiOjgyNC43NjU2MjUsInkiOjU0Mi4xMjV9LHsieCI6ODk4LjE3MTg3NSwieSI6NTQyLjEyNX1d"/><path id="mermaid-svg-L_a_l_0_0" marker-end="url(#mermaid-svg_flowchart-elk-pointEnd)" d="M77.1 996.8h574.4" class="edge-thickness-normal edge-pattern-solid edge-thickness-normal edge-pattern-solid flowchart-link" data-edge="true" data-et="edge" data-id="L_a_l_0_0" data-look="classic" data-points="W3sieCI6NzcuMTA5Mzc1LCJ5Ijo5OTYuODQzNzV9LHsieCI6MjQzLjIxMDkzNzUsInkiOjk5Ni44NDM3NX0seyJ4IjozNTAuODIwMzEyNSwieSI6OTk2Ljg0Mzc1fSx7IngiOjUxOC42MzI4MTI1LCJ5Ijo5OTYuODQzNzV9LHsieCI6NTk4LjAzOTA2MjUsInkiOjk5Ni44NDM3NX0seyJ4Ijo2NTUuNDQ3OTE2NjY2NjY2NiwieSI6OTk2Ljg0Mzc1fV0="/><path id="mermaid-svg-L_a_id_0_0" marker-end="url(#mermaid-svg_flowchart-elk-pointEnd)" d="M77.1 989.8h20c19.9 0 59.7 0 80.1-.3 20.4-.4 21.4-1.1 22.2-2s1.6-1.7 2-24.6c.3-22.8.3-67.6.7-90.5.3-22.8 1-23.8 1.9-24.6s1.8-1.5 8.3-2c6.6-.3 18.7-.3 42.8-.3h1059.8c25.2 0 43.2 0 52.7-.3 9.5-.4 10.4-1.1 11.2-2 .9-.8 1.6-1.7 2-8.6.3-7 .3-19.8.7-26.7s1-7.8 1.9-8.7 1.8-1.5 15.3-1.9 39.7-.4 52.8-.4h13.1" class="edge-thickness-normal edge-pattern-solid edge-thickness-normal edge-pattern-solid flowchart-link" data-edge="true" data-et="edge" data-id="L_a_id_0_0" data-look="classic" data-points="W3sieCI6NzcuMTA5Mzc1LCJ5Ijo5ODkuODQyMDEzODg4ODg4OX0seyJ4IjoyMDEuNzAzMTI1LCJ5Ijo5ODkuODQyMDEzODg4ODg4OX0seyJ4IjoyMDEuNzAzMTI1LCJ5Ijo4NDUuNTMxMjV9LHsieCI6MjQzLjIxMDkzNzUsInkiOjg0NS41MzEyNX0seyJ4IjozNTAuODIwMzEyNSwieSI6ODQ1LjUzMTI1fSx7IngiOjQzOS4yMjY1NjI1LCJ5Ijo4NDUuNTMxMjV9LHsieCI6NTE4LjYzMjgxMjUsInkiOjg0NS41MzEyNX0seyJ4Ijo1OTguMDM5MDYyNSwieSI6ODQ1LjUzMTI1fSx7IngiOjgyNC43NjU2MjUsInkiOjg0NS41MzEyNX0seyJ4Ijo5MzcuNzczNDM3NSwieSI6ODQ1LjUzMTI1fSx7IngiOjExMDguMDc4MTI1LCJ5Ijo4NDUuNTMxMjV9LHsieCI6MTIyNC42ODc1LCJ5Ijo4NDUuNTMxMjV9LHsieCI6MTMyMi4xMDE1NjI1LCJ5Ijo4NDUuNTMxMjV9LHsieCI6MTM4MS4xMDkzNzUsInkiOjg0NS41MzEyNX0seyJ4IjoxMzgxLjEwOTM3NSwieSI6Nzk2LjkzOTkwMzg0NjE1Mzh9LHsieCI6MTQ2OC42MDkzNzUsInkiOjc5Ni45Mzk5MDM4NDYxNTM4fV0="/><path id="mermaid-svg-L_a_zint_0_0" marker-end="url(#mermaid-svg_flowchart-elk-pointEnd)" d="M77.1 954.8h5.4c5.3 0 16 0 21.8-.3 5.8-.4 6.8-1.1 7.6-2 .9-.8 1.6-1.7 2-134.7s.3-398.1.7-531.1 1-134 1.9-134.8 1.8-1.6 32-2c30.4-.3 90-.3 119.9-.3h29.8" class="edge-thickness-normal edge-pattern-solid edge-thickness-normal edge-pattern-solid flowchart-link" data-edge="true" data-et="edge" data-id="L_a_zint_0_0" data-look="classic" data-points="W3sieCI6NzcuMTA5Mzc1LCJ5Ijo5NTQuODMzMzMzMzMzMzMzM30seyJ4IjoxMTQuMjAzMTI1LCJ5Ijo5NTQuODMzMzMzMzMzMzMzM30seyJ4IjoxMTQuMjAzMTI1LCJ5IjoxNDkuNjAxNTYyNX0seyJ4IjozMDIuMjE4NzUsInkiOjE0OS42MDE1NjI1fV0="/><path id="mermaid-svg-L_a_int_0_0" marker-end="url(#mermaid-svg_flowchart-elk-pointEnd)" d="M77.1 961.8h8.3c8.2 0 24.8 0 33.5-.3 8.7-.4 9.7-1.1 10.5-2s1.6-1.7 2-106.4c.3-104.6.3-313 .7-417.6s1-105.6 1.9-106.4 1.8-1.6 29.2-2 81.2-.3 108.1-.3h27" class="edge-thickness-normal edge-pattern-solid edge-thickness-normal edge-pattern-solid flowchart-link" data-edge="true" data-et="edge" data-id="L_a_int_0_0" data-look="classic" data-points="W3sieCI6NzcuMTA5Mzc1LCJ5Ijo5NjEuODM1MDY5NDQ0NDQ0NX0seyJ4IjoxMzEuNzAzMTI1LCJ5Ijo5NjEuODM1MDY5NDQ0NDQ0NX0seyJ4IjoxMzEuNzAzMTI1LCJ5IjozMjYuODA0Njg3NX0seyJ4IjozMDIuMjE4NzUsInkiOjMyNi44MDQ2ODc1fV0="/><path id="mermaid-svg-L_a_assign_0_0" marker-end="url(#mermaid-svg_flowchart-elk-pointEnd)" d="M77.1 968.8h11.2c11.2 0 33.5 0 45.2-.3 11.6-.4 12.6-1.1 13.4-2s1.6-1.7 2-90.3.3-264.8.7-353.4 1-89.5 1.9-90.3 1.8-1.6 26.2-2c24.5-.3 72.5-.3 96.5-.3h24" class="edge-thickness-normal edge-pattern-solid edge-thickness-normal edge-pattern-solid flowchart-link" data-edge="true" data-et="edge" data-id="L_a_assign_0_0" data-look="classic" data-points="W3sieCI6NzcuMTA5Mzc1LCJ5Ijo5NjguODM2ODA1NTU1NTU1NX0seyJ4IjoxNDkuMjAzMTI1LCJ5Ijo5NjguODM2ODA1NTU1NTU1NX0seyJ4IjoxNDkuMjAzMTI1LCJ5Ijo0MzAuMjEwOTM3NX0seyJ4IjozMDIuMjE4NzUsInkiOjQzMC4yMTA5Mzc1fV0="/><path id="mermaid-svg-L_a_add_0_0" marker-end="url(#mermaid-svg_flowchart-elk-pointEnd)" d="M77.1 975.8h14.1c14.1 0 42.3 0 56.9-.3 14.5-.4 15.5-1.1 16.3-2s1.6-1.7 2-79 .3-231 .7-308.3 1-78.3 1.9-79.1 1.8-1.6 23.3-2c21.6-.3 63.7-.3 84.8-.3h21.1" class="edge-thickness-normal edge-pattern-solid edge-thickness-normal edge-pattern-solid flowchart-link" data-edge="true" data-et="edge" data-id="L_a_add_0_0" data-look="classic" data-points="W3sieCI6NzcuMTA5Mzc1LCJ5Ijo5NzUuODM4NTQxNjY2NjY2Nn0seyJ4IjoxNjYuNzAzMTI1LCJ5Ijo5NzUuODM4NTQxNjY2NjY2Nn0seyJ4IjoxNjYuNzAzMTI1LCJ5Ijo1MDQuODIwMzEyNX0seyJ4IjozMDIuMjE4NzUsInkiOjUwNC44MjAzMTI1fV0="/><path id="mermaid-svg-L_id_id_0_0" marker-end="url(#mermaid-svg_flowchart-elk-pointEnd)" d="M1507.4 716.4v-2.1c0-2.1 0-6.3.4-8.8.3-2.6 1-3.5 1.9-4.4.8-.8 1.8-1.5 7-1.9a187 187 0 0 1 20.2 0c5.3.4 6.2 1.1 7 2 .9.8 1.6 1.7 2 3.6s.3 4.7.3 6.1v1.5" class="edge-thickness-normal edge-pattern-solid edge-thickness-normal edge-pattern-solid flowchart-link" data-edge="true" data-et="edge" data-id="L_id_id_0_0" data-look="classic" data-points="W3sieCI6MTUwNy40MTE0NTgzMzMzMzMzLCJ5Ijo3MTYuMzUwOTYxNTM4NDYxNX0seyJ4IjoxNTA3LjQxMTQ1ODMzMzMzMzMsInkiOjY5OC44NTA5NjE1Mzg0NjE1fSx7IngiOjE1NDYuMjEzNTQxNjY2NjY2NywieSI6Njk4Ljg1MDk2MTUzODQ2MTV9LHsieCI6MTU0Ni4yMTM1NDE2NjY2NjY3LCJ5Ijo3MTYuMzUwOTYxNTM4NDYxNX1d"/><path id="mermaid-svg-L_int_int_0_0" marker-end="url(#mermaid-svg_flowchart-elk-pointEnd)" d="M334.6 278.2v-2c0-2.2 0-6.3.4-8.9.3-2.5 1-3.5 1.9-4.3s1.8-1.6 6-2 11.7-.3 15.9 0c4.2.4 5.1 1.2 6 2q1.3 1 1.9 3.6c.3 2 .3 4.8.3 6.2v1.4" class="edge-thickness-normal edge-pattern-solid edge-thickness-normal edge-pattern-solid flowchart-link" data-edge="true" data-et="edge" data-id="L_int_int_0_0" data-look="classic" data-points="W3sieCI6MzM0LjYxOTc5MTY2NjY2NjcsInkiOjI3OC4yMDMxMjV9LHsieCI6MzM0LjYxOTc5MTY2NjY2NjcsInkiOjI2MC43MDMxMjV9LHsieCI6MzY3LjAyMDgzMzMzMzMzMzMsInkiOjI2MC43MDMxMjV9LHsieCI6MzY3LjAyMDgzMzMzMzMzMzMsInkiOjI3OC4yMDMxMjV9XQ=="/><path id="mermaid-svg-L_e_el_0_0" marker-end="url(#mermaid-svg_flowchart-elk-pointEnd)" d="M390.2 48h3.6c3.7 0 10.9 0 15 .4 4 .3 5 1 5.8 1.9.9.8 1.6 1.8 2 126 .3 124.4.3 372 .7 496.4s1 125.2 1.9 126c.8.9 1.8 1.6 11.1 2s27 .3 35.9.3h8.8" class="edge-thickness-normal edge-pattern-solid edge-thickness-normal edge-pattern-solid flowchart-link" data-edge="true" data-et="edge" data-id="L_e_el_0_0" data-look="classic" data-points="W3sieCI6MzkwLjIyMzk1ODMzMzMzMzMsInkiOjQ4fSx7IngiOjQxNi45MjE4NzUsInkiOjQ4fSx7IngiOjQxNi45MjE4NzUsInkiOjgwMS4wMzEyNX0seyJ4Ijo0NzkuMDMxMjUsInkiOjgwMS4wMzEyNX1d"/><path id="mermaid-svg-L_e_id_0_0" marker-end="url(#mermaid-svg_flowchart-elk-pointEnd)" d="M390.2 30h936.3c37 0 78.3 0 99.4.4 21.2.3 22 1 23 1.9.8.8 1.5 1.8 1.8 116.4s.4 343.2.8 457.9c.3 114.6 1 115.6 1.9 116.4q1 1.4 3.7 2c1.8.3 4.7.3 6 .3h1.5" class="edge-thickness-normal edge-pattern-solid edge-thickness-normal edge-pattern-solid flowchart-link" data-edge="true" data-et="edge" data-id="L_e_id_0_0" data-look="classic" data-points="W3sieCI6MzkwLjIyMzk1ODMzMzMzMzMsInkiOjMwfSx7IngiOjQzOS4yMjY1NjI1LCJ5IjozMH0seyJ4Ijo1MTguNjMyODEyNSwieSI6MzB9LHsieCI6NTk4LjAzOTA2MjUsInkiOjMwfSx7IngiOjY4NS44NTE1NjI1LCJ5IjozMH0seyJ4Ijo5MzcuNzczNDM3NSwieSI6MzB9LHsieCI6MTEwOC4wNzgxMjUsInkiOjMwfSx7IngiOjEyMjQuNjg3NSwieSI6MzB9LHsieCI6MTMyMi4xMDE1NjI1LCJ5IjozMH0seyJ4IjoxNDUxLjEwOTM3NSwieSI6MzB9LHsieCI6MTQ1MS4xMDkzNzUsInkiOjcyNS4zMDUyODg0NjE1Mzg1fSx7IngiOjE0NjguNjA5Mzc1LCJ5Ijo3MjUuMzA1Mjg4NDYxNTM4NX1d"/><path id="mermaid-svg-L_el_els_0_0" marker-end="url(#mermaid-svg_flowchart-elk-pointEnd)" d="M558.2 792h2.1c2.1 0 6.3 0 8.8-.3 2.6-.4 3.5-1.1 4.4-2 .8-.8 1.5-1.7 1.9-5s.3-8.7.7-11.9 1-4.2 2-5c.7-.8 1.7-1.5 12-2 10.1-.3 29.6-.3 39.4-.3h9.7" class="edge-thickness-normal edge-pattern-solid edge-thickness-normal edge-pattern-solid flowchart-link" data-edge="true" data-et="edge" data-id="L_el_els_0_0" data-look="classic" data-points="W3sieCI6NTU4LjIzNDM3NSwieSI6NzkyLjAzMTI1fSx7IngiOjU3NS43MzQzNzUsInkiOjc5Mi4wMzEyNX0seyJ4Ijo1NzUuNzM0Mzc1LCJ5Ijo3NjUuNTMxMjV9LHsieCI6NjQzLjI0NjA5Mzc1LCJ5Ijo3NjUuNTMxMjV9XQ=="/><path id="mermaid-svg-L_el_id_0_0" marker-end="url(#mermaid-svg_flowchart-elk-pointEnd)" d="M558.2 810H1312c22.3 0 34.4 0 41-.3 6.6-.4 7.5-1.1 8.3-2s1.6-1.7 2-4.2.3-6.5.7-9 1-3.4 1.9-4.2 1.8-1.6 18.2-2c16.5-.3 48.5-.3 64.5-.3h16" class="edge-thickness-normal edge-pattern-solid edge-thickness-normal edge-pattern-solid flowchart-link" data-edge="true" data-et="edge" data-id="L_el_id_0_0" data-look="classic" data-points="W3sieCI6NTU4LjIzNDM3NSwieSI6ODEwLjAzMTI1fSx7IngiOjU5OC4wMzkwNjI1LCJ5Ijo4MTAuMDMxMjV9LHsieCI6Njg1Ljg1MTU2MjUsInkiOjgxMC4wMzEyNX0seyJ4Ijo4MjQuNzY1NjI1LCJ5Ijo4MTAuMDMxMjV9LHsieCI6MTEwOC4wNzgxMjUsInkiOjgxMC4wMzEyNX0seyJ4IjoxMjI0LjY4NzUsInkiOjgxMC4wMzEyNX0seyJ4IjoxMzIyLjEwMTU2MjUsInkiOjgxMC4wMzEyNX0seyJ4IjoxMzYzLjYwOTM3NSwieSI6ODEwLjAzMTI1fSx7IngiOjEzNjMuNjA5Mzc1LCJ5Ijo3ODcuOTg1NTc2OTIzMDc2OX0seyJ4IjoxNDY4LjYwOTM3NSwieSI6Nzg3Ljk4NTU3NjkyMzA3Njl9XQ=="/><path id="mermaid-svg-L_els_else_0_0" marker-end="url(#mermaid-svg_flowchart-elk-pointEnd)" d="M732 752h2.4c2.4 0 7.2 0 10-.3 2.9-.4 3.8-1.1 4.7-2 .8-.8 1.5-1.7 1.9-19.5.4-17.7.4-52.3.7-70 .4-17.8 1.1-18.8 2-19.6s1.7-1.5 26-2c24.4-.3 72.1-.3 96-.3h23.9" class="edge-thickness-normal edge-pattern-solid edge-thickness-normal edge-pattern-solid flowchart-link" data-edge="true" data-et="edge" data-id="L_els_else_0_0" data-look="classic" data-points="W3sieCI6NzMyLjA1ODU5Mzc1LCJ5Ijo3NTIuMDMxMjV9LHsieCI6NzUxLjM1OTM3NSwieSI6NzUyLjAzMTI1fSx7IngiOjc1MS4zNTkzNzUsInkiOjYzOC4zMjgxMjV9LHsieCI6OTAzLjU3MDMxMjUsInkiOjYzOC4zMjgxMjV9XQ=="/><path id="mermaid-svg-L_els_e4_0_0" marker-end="url(#mermaid-svg_flowchart-elk-pointEnd)" d="M732 765.5h5.4c5.3 0 15.9 0 21.6-.3 5.8-.4 6.7-1.1 7.6-2s1.5-1.7 1.9-5.7.4-11 .7-15c.4-4 1.1-4.9 2-5.7s1.7-1.5 22.2-2c20.6-.3 60.7-.3 80.7-.3h20" class="edge-thickness-normal edge-pattern-solid edge-thickness-normal edge-pattern-solid flowchart-link" data-edge="true" data-et="edge" data-id="L_els_e4_0_0" data-look="classic" data-points="W3sieCI6NzMyLjA1ODU5Mzc1LCJ5Ijo3NjUuNTMxMjV9LHsieCI6NzY4Ljg1OTM3NSwieSI6NzY1LjUzMTI1fSx7IngiOjc2OC44NTkzNzUsInkiOjczNC41MzEyNX0seyJ4Ijo4OTguMTcxODc1LCJ5Ijo3MzQuNTMxMjV9XQ=="/><path id="mermaid-svg-L_els_id_0_0" marker-end="url(#mermaid-svg_flowchart-elk-pointEnd)" d="M732 779h732.6" class="edge-thickness-normal edge-pattern-solid edge-thickness-normal edge-pattern-solid flowchart-link" data-edge="true" data-et="edge" data-id="L_els_id_0_0" data-look="classic" data-points="W3sieCI6NzMyLjA1ODU5Mzc1LCJ5Ijo3NzkuMDMxMjV9LHsieCI6ODI0Ljc2NTYyNSwieSI6Nzc5LjAzMTI1fSx7IngiOjkzNy43NzM0Mzc1LCJ5Ijo3NzkuMDMxMjV9LHsieCI6MTIyNC42ODc1LCJ5Ijo3NzkuMDMxMjV9LHsieCI6MTMyMi4xMDE1NjI1LCJ5Ijo3NzkuMDMxMjV9LHsieCI6MTQ2OC42MDkzNzUsInkiOjc3OS4wMzEyNX1d"/><path id="mermaid-svg-L_e4_elif_0_0" marker-end="url(#mermaid-svg_flowchart-elk-pointEnd)" d="M977.4 743.5h7.9c8 0 23.7 0 32.1-.3 8.4-.4 9.4-1.1 10.2-2s1.6-1.7 2-60.2c.3-58.6.3-174.7.6-233.2.4-58.5 1.1-59.5 2-60.3s1.7-1.6 27.5-2c25.7-.3 76.2-.3 101.5-.3h25.3" class="edge-thickness-normal edge-pattern-solid edge-thickness-normal edge-pattern-solid flowchart-link" data-edge="true" data-et="edge" data-id="L_e4_elif_0_0" data-look="classic" data-points="W3sieCI6OTc3LjM3NSwieSI6NzQzLjUzMTI1fSx7IngiOjEwMjkuODc1LCJ5Ijo3NDMuNTMxMjV9LHsieCI6MTAyOS44NzUsInkiOjM4NS4yMTg3NX0seyJ4IjoxMTkwLjQ4NDM3NSwieSI6Mzg1LjIxODc1fV0="/><path id="mermaid-svg-L_e4_id_0_0" marker-end="url(#mermaid-svg_flowchart-elk-pointEnd)" d="M977.4 725.5h5c5 0 15 0 20.4-.3 5.5-.4 6.5-1.1 7.3-2s1.6-1.7 2-70.9c.3-69.1.3-206.4.6-275.6.4-69.1 1.1-70 2-70.9.8-.8 1.7-1.6 17.3-2s45.8-.3 96.6-.3h172.7c50.5 0 80.1 0 95.4.4 15.4.3 16.3 1 17.1 1.9s1.6 1.8 2 73.9c.3 72 .3 215.3.7 287.4s1 73 1.9 73.8c.8.9 1.8 1.6 9.5 2s22.2.3 29.5.3h7.2" class="edge-thickness-normal edge-pattern-solid edge-thickness-normal edge-pattern-solid flowchart-link" data-edge="true" data-et="edge" data-id="L_e4_id_0_0" data-look="classic" data-points="W3sieCI6OTc3LjM3NSwieSI6NzI1LjUzMTI1fSx7IngiOjEwMTIuMzc1LCJ5Ijo3MjUuNTMxMjV9LHsieCI6MTAxMi4zNzUsInkiOjMwMy41MTU2MjV9LHsieCI6MTEwOC4wNzgxMjUsInkiOjMwMy41MTU2MjV9LHsieCI6MTMyMi4xMDE1NjI1LCJ5IjozMDMuNTE1NjI1fSx7IngiOjE0MTYuMTA5Mzc1LCJ5IjozMDMuNTE1NjI1fSx7IngiOjE0MTYuMTA5Mzc1LCJ5Ijo3NDMuMjEzOTQyMzA3NjkyNH0seyJ4IjoxNDY4LjYwOTM3NSwieSI6NzQzLjIxMzk0MjMwNzY5MjR9XQ=="/><path id="mermaid-svg-L_else_id_0_0" marker-end="url(#mermaid-svg_flowchart-elk-pointEnd)" d="M972 638.3h3c3 0 9 0 12.4-.3 3.4-.4 4.4-1.1 5.2-2s1.6-1.7 2-63.4.3-184.1.6-245.8c.4-61.7 1.1-62.7 2-63.5s1.7-1.6 20.2-2q27.7-.4 108.3-.3h178.5q80-.1 107.1.4c18.3.3 19.2 1 20 1.9s1.6 1.8 2 79.5c.3 77.6.3 232 .7 309.7s1 78.6 1.9 79.5c.8.8 1.8 1.5 6.6 1.9s13.4.4 17.8.4h4.3" class="edge-thickness-normal edge-pattern-solid edge-thickness-normal edge-pattern-solid flowchart-link" data-edge="true" data-et="edge" data-id="L_else_id_0_0" data-look="classic" data-points="W3sieCI6OTcxLjk3NjU2MjUsInkiOjYzOC4zMjgxMjV9LHsieCI6OTk0Ljg3NSwieSI6NjM4LjMyODEyNX0seyJ4Ijo5OTQuODc1LCJ5IjoyNjEuMDE1NjI1fSx7IngiOjExMDguMDc4MTI1LCJ5IjoyNjEuMDE1NjI1fSx7IngiOjEzMjIuMTAxNTYyNSwieSI6MjYxLjAxNTYyNX0seyJ4IjoxNDMzLjYwOTM3NSwieSI6MjYxLjAxNTYyNX0seyJ4IjoxNDMzLjYwOTM3NSwieSI6NzM0LjI1OTYxNTM4NDYxNTR9LHsieCI6MTQ2OC42MDkzNzUsInkiOjczNC4yNTk2MTUzODQ2MTU0fV0="/><path id="mermaid-svg-L_elif_id_0_0" marker-end="url(#mermaid-svg_flowchart-elk-pointEnd)" d="M1258.9 385.2h22.4c22.5 0 67.4 0 90.3.4 23 .3 23.9 1 24.7 1.9s1.6 1.8 2 61.7.3 179 .7 239 1 60.9 1.9 61.7 1.8 1.5 12.4 2c10.6.3 31 .3 41.1.3h10.2" class="edge-thickness-normal edge-pattern-solid edge-thickness-normal edge-pattern-solid flowchart-link" data-edge="true" data-et="edge" data-id="L_elif_id_0_0" data-look="classic" data-points="W3sieCI6MTI1OC44OTA2MjUsInkiOjM4NS4yMTg3NX0seyJ4IjoxMzk4LjYwOTM3NSwieSI6Mzg1LjIxODc1fSx7IngiOjEzOTguNjA5Mzc1LCJ5Ijo3NTIuMTY4MjY5MjMwNzY5M30seyJ4IjoxNDY4LjYwOTM3NSwieSI6NzUyLjE2ODI2OTIzMDc2OTN9XQ=="/><path id="mermaid-svg-L_i1_if_0_0" marker-end="url(#mermaid-svg_flowchart-elk-pointEnd)" d="M977.4 533.1h10.8c10.8 0 32.5 0 43.8-.3 11.3-.4 12.3-1.1 13-2 1-.8 1.7-1.7 2-9.6s.4-22.5.7-30.3c.4-7.8 1.1-8.8 2-9.6s1.7-1.6 26.2-2c24.4-.3 72.3-.3 96.2-.3h24" class="edge-thickness-normal edge-pattern-solid edge-thickness-normal edge-pattern-solid flowchart-link" data-edge="true" data-et="edge" data-id="L_i1_if_0_0" data-look="classic" data-points="W3sieCI6OTc3LjM3NSwieSI6NTMzLjEyNX0seyJ4IjoxMDQ3LjM3NSwieSI6NTMzLjEyNX0seyJ4IjoxMDQ3LjM3NSwieSI6NDc5LjAyMzQzNzV9LHsieCI6MTIwMC4wODU5Mzc1LCJ5Ijo0NzkuMDIzNDM3NX1d"/><path id="mermaid-svg-L_i1_id_0_0" marker-end="url(#mermaid-svg_flowchart-elk-pointEnd)" d="M977.4 551.1h315.1c41.8 0 54 0 60.5.4 6.6.3 7.5 1 8.3 2 .9.7 1.6 1.7 2 37s.3 105 .7 140.2c.3 35.3 1 36.3 1.9 37.1s1.8 1.6 18.2 2c16.5.3 48.5.3 64.5.3h16" class="edge-thickness-normal edge-pattern-solid edge-thickness-normal edge-pattern-solid flowchart-link" data-edge="true" data-et="edge" data-id="L_i1_id_0_0" data-look="classic" data-points="W3sieCI6OTc3LjM3NSwieSI6NTUxLjEyNX0seyJ4IjoxMTA4LjA3ODEyNSwieSI6NTUxLjEyNX0seyJ4IjoxMzIyLjEwMTU2MjUsInkiOjU1MS4xMjV9LHsieCI6MTM2My42MDkzNzUsInkiOjU1MS4xMjV9LHsieCI6MTM2My42MDkzNzUsInkiOjc3MC4wNzY5MjMwNzY5MjMxfSx7IngiOjE0NjguNjA5Mzc1LCJ5Ijo3NzAuMDc2OTIzMDc2OTIzMX1d"/><path id="mermaid-svg-L_if_id_0_0" marker-end="url(#mermaid-svg_flowchart-elk-pointEnd)" d="M1249.3 479h21.1c21.2 0 63.4 0 85 .4 21.7.3 22.6 1 23.4 1.9.9.8 1.6 1.8 2 47.6s.3 136.5.7 182.3 1 46.8 1.9 47.6 1.8 1.6 15.3 2 39.7.3 52.8.3h13.1" class="edge-thickness-normal edge-pattern-solid edge-thickness-normal edge-pattern-solid flowchart-link" data-edge="true" data-et="edge" data-id="L_if_id_0_0" data-look="classic" data-points="W3sieCI6MTI0OS4yODkwNjI1LCJ5Ijo0NzkuMDIzNDM3NX0seyJ4IjoxMzgxLjEwOTM3NSwieSI6NDc5LjAyMzQzNzV9LHsieCI6MTM4MS4xMDkzNzUsInkiOjc2MS4xMjI1OTYxNTM4NDYyfSx7IngiOjE0NjguNjA5Mzc1LCJ5Ijo3NjEuMTIyNTk2MTUzODQ2Mn1d"/><path id="mermaid-svg-L_l_le_0_0" marker-end="url(#mermaid-svg_flowchart-elk-pointEnd)" d="M725 987.8h3.6c3.6 0 10.7 0 14.7-.3 4-.4 5-1.1 5.8-2s1.5-1.7 1.9-5 .4-8.7.7-11.9c.4-3.2 1.1-4.1 2-5 .8-.8 1.7-1.5 25.2-1.9 23.4-.4 69.3-.4 92.3-.4h23" class="edge-thickness-normal edge-pattern-solid edge-thickness-normal edge-pattern-solid flowchart-link" data-edge="true" data-et="edge" data-id="L_l_le_0_0" data-look="classic" data-points="W3sieCI6NzI1LjA1NzI5MTY2NjY2NjYsInkiOjk4Ny44NDM3NX0seyJ4Ijo3NTEuMzU5Mzc1LCJ5Ijo5ODcuODQzNzV9LHsieCI6NzUxLjM1OTM3NSwieSI6OTYxLjM0Mzc1fSx7IngiOjg5OC4xNzE4NzUsInkiOjk2MS4zNDM3NX1d"/><path id="mermaid-svg-L_l_id_0_0" marker-end="url(#mermaid-svg_flowchart-elk-pointEnd)" d="M725 1005.8h598.6c34 0 69.5 0 87.7-.3 18.3-.4 19.2-1.1 20-2s1.6-1.7 2-30.9.3-86.5.7-115.6 1-30 1.9-31c.8-.7 1.8-1.5 6.6-1.8s13.4-.4 17.8-.4h4.3" class="edge-thickness-normal edge-pattern-solid edge-thickness-normal edge-pattern-solid flowchart-link" data-edge="true" data-et="edge" data-id="L_l_id_0_0" data-look="classic" data-points="W3sieCI6NzI1LjA1NzI5MTY2NjY2NjYsInkiOjEwMDUuODQzNzV9LHsieCI6ODI0Ljc2NTYyNSwieSI6MTAwNS44NDM3NX0seyJ4Ijo5MzcuNzczNDM3NSwieSI6MTAwNS44NDM3NX0seyJ4IjoxMjI0LjY4NzUsInkiOjEwMDUuODQzNzV9LHsieCI6MTMyMi4xMDE1NjI1LCJ5IjoxMDA1Ljg0Mzc1fSx7IngiOjE0MzMuNjA5Mzc1LCJ5IjoxMDA1Ljg0Mzc1fSx7IngiOjE0MzMuNjA5Mzc1LCJ5Ijo4MjMuODAyODg0NjE1Mzg0Nn0seyJ4IjoxNDY4LjYwOTM3NSwieSI6ODIzLjgwMjg4NDYxNTM4NDZ9XQ=="/><path id="mermaid-svg-L_le_let_0_0" marker-end="url(#mermaid-svg_flowchart-elk-pointEnd)" d="M977.4 952.3h2c2.1 0 6.3 0 8.9-.3 2.5-.4 3.5-1.1 4.3-2s1.6-1.7 2-10.3.3-25 .6-33.6c.4-8.6 1.1-9.5 2-10.4.8-.8 1.7-1.5 34.1-1.9s96.2-.4 128-.4h32" class="edge-thickness-normal edge-pattern-solid edge-thickness-normal edge-pattern-solid flowchart-link" data-edge="true" data-et="edge" data-id="L_le_let_0_0" data-look="classic" data-points="W3sieCI6OTc3LjM3NSwieSI6OTUyLjM0Mzc1fSx7IngiOjk5NC44NzUsInkiOjk1Mi4zNDM3NX0seyJ4Ijo5OTQuODc1LCJ5Ijo4OTMuNDM3NX0seyJ4IjoxMTk1LjI4MTI1LCJ5Ijo4OTMuNDM3NX1d"/><path id="mermaid-svg-L_le_id_0_0" marker-end="url(#mermaid-svg_flowchart-elk-pointEnd)" d="M977.4 970.3h323.9c50.5 0 80.1 0 95.4-.3 15.4-.4 16.3-1.1 17.1-2s1.6-1.7 2-26.4c.3-24.8.3-73.3.7-98s1-25.6 1.9-26.5 1.8-1.5 9.5-1.9 22.2-.4 29.5-.4h7.2" class="edge-thickness-normal edge-pattern-solid edge-thickness-normal edge-pattern-solid flowchart-link" data-edge="true" data-et="edge" data-id="L_le_id_0_0" data-look="classic" data-points="W3sieCI6OTc3LjM3NSwieSI6OTcwLjM0Mzc1fSx7IngiOjExMDguMDc4MTI1LCJ5Ijo5NzAuMzQzNzV9LHsieCI6MTMyMi4xMDE1NjI1LCJ5Ijo5NzAuMzQzNzV9LHsieCI6MTQxNi4xMDkzNzUsInkiOjk3MC4zNDM3NX0seyJ4IjoxNDE2LjEwOTM3NSwieSI6ODE0Ljg0ODU1NzY5MjMwNzZ9LHsieCI6MTQ2OC42MDkzNzUsInkiOjgxNC44NDg1NTc2OTIzMDc2fV0="/><path id="mermaid-svg-L_let_id_0_0" marker-end="url(#mermaid-svg_flowchart-elk-pointEnd)" d="M1254 893.4h23.3c23.3 0 69.8 0 93.5-.3 23.8-.4 24.7-1.1 25.5-2s1.6-1.7 2-15.1.3-39.3.7-52.7c.3-13.3 1-14.3 1.9-15.1.8-.9 1.8-1.6 12.4-2s31-.3 41.1-.3h10.2" class="edge-thickness-normal edge-pattern-solid edge-thickness-normal edge-pattern-solid flowchart-link" data-edge="true" data-et="edge" data-id="L_let_id_0_0" data-look="classic" data-points="W3sieCI6MTI1NC4wOTM3NSwieSI6ODkzLjQzNzV9LHsieCI6MTM5OC42MDkzNzUsInkiOjg5My40Mzc1fSx7IngiOjEzOTguNjA5Mzc1LCJ5Ijo4MDUuODk0MjMwNzY5MjMwN30seyJ4IjoxNDY4LjYwOTM3NSwieSI6ODA1Ljg5NDIzMDc2OTIzMDd9XQ=="/></g><g class="edgeLabels"><g class="edgeLabel"><foreignObject width="67.2" height="24" class="label" data-id="L_a_a_0_0" transform="translate(12 895.8)"><div xmlns="http://www.w3.org/1999/xhtml" class="labelBkg" style="display:table-cell;white-space:nowrap;line-height:1.5;text-align:center"><span class="edgeLabel"><p>[ \t\n]</p></span></div></foreignObject></g><g class="edgeLabel"><foreignObject width="9.6" height="24" class="label" data-id="L_a_e_0_0" transform="translate(238.4 26.5)"><div xmlns="http://www.w3.org/1999/xhtml" class="labelBkg" style="display:table-cell;white-space:nowrap;line-height:1.5;text-align:center"><span class="edgeLabel"><p>e</p></span></div></foreignObject></g><g class="edgeLabel"><foreignObject width="9.6" height="24" class="label" data-id="L_a_i1_0_0" transform="translate(513.8 529.6)"><div xmlns="http://www.w3.org/1999/xhtml" class="labelBkg" style="display:table-cell;white-space:nowrap;line-height:1.5;text-align:center"><span class="edgeLabel"><p>i</p></span></div></foreignObject></g><g class="edgeLabel"><foreignObject width="9.6" height="24" class="label" data-id="L_a_l_0_0" transform="translate(434.4 984.3)"><div xmlns="http://www.w3.org/1999/xhtml" class="labelBkg" style="display:table-cell;white-space:nowrap;line-height:1.5;text-align:center"><span class="edgeLabel"><p>l</p></span></div></foreignObject></g><g class="edgeLabel"><foreignObject width="96" height="24" class="label" data-id="L_a_id_0_0" transform="translate(637.8 833)"><div xmlns="http://www.w3.org/1999/xhtml" class="labelBkg" style="display:table-cell;white-space:nowrap;line-height:1.5;text-align:center"><span class="edgeLabel"><p>[a-z--eil]</p></span></div></foreignObject></g><g class="edgeLabel"><foreignObject width="9.6" height="24" class="label" data-id="L_a_zint_0_0" transform="translate(238.4 137.1)"><div xmlns="http://www.w3.org/1999/xhtml" class="labelBkg" style="display:table-cell;white-space:nowrap;line-height:1.5;text-align:center"><span class="edgeLabel"><p>0</p></span></div></foreignObject></g><g class="edgeLabel"><foreignObject width="48" height="24" class="label" data-id="L_a_int_0_0" transform="translate(219.2 314.3)"><div xmlns="http://www.w3.org/1999/xhtml" class="labelBkg" style="display:table-cell;white-space:nowrap;line-height:1.5;text-align:center"><span class="edgeLabel"><p>[1-9]</p></span></div></foreignObject></g><g class="edgeLabel"><foreignObject width="9.6" height="24" class="label" data-id="L_a_assign_0_0" transform="translate(238.4 417.7)"><div xmlns="http://www.w3.org/1999/xhtml" class="labelBkg" style="display:table-cell;white-space:nowrap;line-height:1.5;text-align:center"><span class="edgeLabel"><p>=</p></span></div></foreignObject></g><g class="edgeLabel"><foreignObject width="9.6" height="24" class="label" data-id="L_a_add_0_0" transform="translate(238.4 492.3)"><div xmlns="http://www.w3.org/1999/xhtml" class="labelBkg" style="display:table-cell;white-space:nowrap;line-height:1.5;text-align:center"><span class="edgeLabel"><p>+</p></span></div></foreignObject></g><g class="edgeLabel"><foreignObject width="48" height="24" class="label" data-id="L_id_id_0_0" transform="translate(1502.8 671.4)"><div xmlns="http://www.w3.org/1999/xhtml" class="labelBkg" style="display:table-cell;white-space:nowrap;line-height:1.5;text-align:center"><span class="edgeLabel"><p>[a-z]</p></span></div></foreignObject></g><g class="edgeLabel"><foreignObject width="48" height="24" class="label" data-id="L_int_int_0_0" transform="translate(326.8 233.2)"><div xmlns="http://www.w3.org/1999/xhtml" class="labelBkg" style="display:table-cell;white-space:nowrap;line-height:1.5;text-align:center"><span class="edgeLabel"><p>[0-9]</p></span></div></foreignObject></g><g class="edgeLabel"><foreignObject width="9.6" height="24" class="label" data-id="L_e_el_0_0" transform="translate(434.4 788.5)"><div xmlns="http://www.w3.org/1999/xhtml" class="labelBkg" style="display:table-cell;white-space:nowrap;line-height:1.5;text-align:center"><span class="edgeLabel"><p>l</p></span></div></foreignObject></g><g class="edgeLabel"><foreignObject width="76.8" height="24" class="label" data-id="L_e_id_0_0" transform="translate(786.4 17.5)"><div xmlns="http://www.w3.org/1999/xhtml" class="labelBkg" style="display:table-cell;white-space:nowrap;line-height:1.5;text-align:center"><span class="edgeLabel"><p>[a-z--l]</p></span></div></foreignObject></g><g class="edgeLabel"><foreignObject width="9.6" height="24" class="label" data-id="L_el_els_0_0" transform="translate(593.2 753)"><div xmlns="http://www.w3.org/1999/xhtml" class="labelBkg" style="display:table-cell;white-space:nowrap;line-height:1.5;text-align:center"><span class="edgeLabel"><p>s</p></span></div></foreignObject></g><g class="edgeLabel"><foreignObject width="76.8" height="24" class="label" data-id="L_el_id_0_0" transform="translate(899.4 797.5)"><div xmlns="http://www.w3.org/1999/xhtml" class="labelBkg" style="display:table-cell;white-space:nowrap;line-height:1.5;text-align:center"><span class="edgeLabel"><p>[a-z--s]</p></span></div></foreignObject></g><g class="edgeLabel"><foreignObject width="9.6" height="24" class="label" data-id="L_els_else_0_0" transform="translate(820 625.8)"><div xmlns="http://www.w3.org/1999/xhtml" class="labelBkg" style="display:table-cell;white-space:nowrap;line-height:1.5;text-align:center"><span class="edgeLabel"><p>e</p></span></div></foreignObject></g><g class="edgeLabel"><foreignObject width="9.6" height="24" class="label" data-id="L_els_e4_0_0" transform="translate(820 722)"><div xmlns="http://www.w3.org/1999/xhtml" class="labelBkg" style="display:table-cell;white-space:nowrap;line-height:1.5;text-align:center"><span class="edgeLabel"><p>i</p></span></div></foreignObject></g><g class="edgeLabel"><foreignObject width="86.4" height="24" class="label" data-id="L_els_id_0_0" transform="translate(1064.9 766.5)"><div xmlns="http://www.w3.org/1999/xhtml" class="labelBkg" style="display:table-cell;white-space:nowrap;line-height:1.5;text-align:center"><span class="edgeLabel"><p>[a-z--ei]</p></span></div></foreignObject></g><g class="edgeLabel"><foreignObject width="9.6" height="24" class="label" data-id="L_e4_elif_0_0" transform="translate(1103.3 372.7)"><div xmlns="http://www.w3.org/1999/xhtml" class="labelBkg" style="display:table-cell;white-space:nowrap;line-height:1.5;text-align:center"><span class="edgeLabel"><p>f</p></span></div></foreignObject></g><g class="edgeLabel"><foreignObject width="76.8" height="24" class="label" data-id="L_e4_id_0_0" transform="translate(1186.3 291)"><div xmlns="http://www.w3.org/1999/xhtml" class="labelBkg" style="display:table-cell;white-space:nowrap;line-height:1.5;text-align:center"><span class="edgeLabel"><p>[a-z--f]</p></span></div></foreignObject></g><g class="edgeLabel"><foreignObject width="48" height="24" class="label" data-id="L_else_id_0_0" transform="translate(1200.7 248.5)"><div xmlns="http://www.w3.org/1999/xhtml" class="labelBkg" style="display:table-cell;white-space:nowrap;line-height:1.5;text-align:center"><span class="edgeLabel"><p>[a-z]</p></span></div></foreignObject></g><g class="edgeLabel"><foreignObject width="48" height="24" class="label" data-id="L_elif_id_0_0" transform="translate(1298 372.7)"><div xmlns="http://www.w3.org/1999/xhtml" class="labelBkg" style="display:table-cell;white-space:nowrap;line-height:1.5;text-align:center"><span class="edgeLabel"><p>[a-z]</p></span></div></foreignObject></g><g class="edgeLabel"><foreignObject width="9.6" height="24" class="label" data-id="L_i1_if_0_0" transform="translate(1103.3 466.5)"><div xmlns="http://www.w3.org/1999/xhtml" class="labelBkg" style="display:table-cell;white-space:nowrap;line-height:1.5;text-align:center"><span class="edgeLabel"><p>f</p></span></div></foreignObject></g><g class="edgeLabel"><foreignObject width="76.8" height="24" class="label" data-id="L_i1_id_0_0" transform="translate(1186.3 538.6)"><div xmlns="http://www.w3.org/1999/xhtml" class="labelBkg" style="display:table-cell;white-space:nowrap;line-height:1.5;text-align:center"><span class="edgeLabel"><p>[a-z--f]</p></span></div></foreignObject></g><g class="edgeLabel"><foreignObject width="48" height="24" class="label" data-id="L_if_id_0_0" transform="translate(1298 466.5)"><div xmlns="http://www.w3.org/1999/xhtml" class="labelBkg" style="display:table-cell;white-space:nowrap;line-height:1.5;text-align:center"><span class="edgeLabel"><p>[a-z]</p></span></div></foreignObject></g><g class="edgeLabel"><foreignObject width="9.6" height="24" class="label" data-id="L_l_le_0_0" transform="translate(820 948.8)"><div xmlns="http://www.w3.org/1999/xhtml" class="labelBkg" style="display:table-cell;white-space:nowrap;line-height:1.5;text-align:center"><span class="edgeLabel"><p>e</p></span></div></foreignObject></g><g class="edgeLabel"><foreignObject width="76.8" height="24" class="label" data-id="L_l_id_0_0" transform="translate(1069.7 993.3)"><div xmlns="http://www.w3.org/1999/xhtml" class="labelBkg" style="display:table-cell;white-space:nowrap;line-height:1.5;text-align:center"><span class="edgeLabel"><p>[a-z--e]</p></span></div></foreignObject></g><g class="edgeLabel"><foreignObject width="9.6" height="24" class="label" data-id="L_le_let_0_0" transform="translate(1103.3 881)"><div xmlns="http://www.w3.org/1999/xhtml" class="labelBkg" style="display:table-cell;white-space:nowrap;line-height:1.5;text-align:center"><span class="edgeLabel"><p>t</p></span></div></foreignObject></g><g class="edgeLabel"><foreignObject width="76.8" height="24" class="label" data-id="L_le_id_0_0" transform="translate(1186.3 957.8)"><div xmlns="http://www.w3.org/1999/xhtml" class="labelBkg" style="display:table-cell;white-space:nowrap;line-height:1.5;text-align:center"><span class="edgeLabel"><p>[a-z--t]</p></span></div></foreignObject></g><g class="edgeLabel"><foreignObject width="48" height="24" class="label" data-id="L_let_id_0_0" transform="translate(1298 881)"><div xmlns="http://www.w3.org/1999/xhtml" class="labelBkg" style="display:table-cell;white-space:nowrap;line-height:1.5;text-align:center"><span class="edgeLabel"><p>[a-z]</p></span></div></foreignObject></g></g></svg>