<svg xmlns="http://www.w3.org/2000/svg" viewBox="0 0 587.9 661.4">
  <path d="M294.2 0a62 62 0 0 0-32.1 9.5C230.9 28 75 117.4 28.5 144.3A54.4 54.4 0 0 0 0 194.4V467c0 10.8 2.3 20.5 6.9 28.8A56 56 0 0 0 28.5 517C74.9 544 230.9 633.5 262 651.9a57.6 57.6 0 0 0 62.5.6L559.4 517a56 56 0 0 0 21.6-21.3c4.6-8.3 6.9-18 6.9-28.9V194.4c0-11-2.4-20.9-7.2-29.3a56.2 56.2 0 0 0-21.3-20.8L324.6 9A60.8 60.8 0 0 0 294.2 0zm2.8 158.5c110.6 0 149.2 93.3 149.2 131.4l-91.5-.6s-5.4-49.6-58.2-49.6c-52.7 0-65.3 57-65.3 92.4 0 23.3 9.3 92 65.3 92 60.7 0 58.4-53 58.4-53l87.2 5c0 45.8-28 126.8-145.1 126.8-72.4 0-165.2-42-165.2-170.8S226.5 158.5 297 158.5z"/>
</svg>
