<svg xmlns="http://www.w3.org/2000/svg" viewBox="0 0 50 50">
<path d="M25 2a23 23 0 1 0 0 46 23 23 0 0 0 0-46zm9.7 33.3a1.5 1.5 0 0 1-2 .4A20.2 20.2 0 0 0 22.5 33c-3.7 0-6.5 1-6.5 1a1.5 1.5 0 1 1-1-3c.2 0 3.3-1 7.5-1 3.5 0 8.4 1 11.8 3.3.7.4 1 1.3.4 2zm3-6.1a1.7 1.7 0 0 1-2.3.5c-4.5-2.8-9.1-3.3-13-3.3-4.6 0-8.2.9-8.2 1a1.7 1.7 0 0 1-1-3.4c.3 0 3.9-1 8.8-1 4.5 0 10 .6 15.2 3.8.8.5 1 1.6.5 2.4zm3-7.2a2 2 0 0 1-2.7.7c-5.2-3-11.6-3.7-16-3.7-5.4 0-9.5 1-9.5 1a2 2 0 0 1-1-4c.2 0 4.6-1 10.4-1h.1c5 0 12 .8 18 4.3a2 2 0 0 1 .7 2.7z"/>
</svg>
